<?xml version="1.0" encoding="UTF-8"?>
<svg version="1.1" xmlns="http://www.w3.org/2000/svg" width="1024" height="1024">
<path d="M0 0 C337.92 0 675.84 0 1024 0 C1024 337.92 1024 675.84 1024 1024 C686.08 1024 348.16 1024 0 1024 C0 686.08 0 348.16 0 0 Z " fill="#FBF7EC" transform="translate(0,0)"/>
<path d="M0 0 C3.36951906 0.00851319 6.73733578 -0.02040737 10.10668945 -0.05200195 C25.43476037 -0.10155008 40.03497688 1.50122911 55.06958008 4.44604492 C55.7717868 4.58207123 56.47399353 4.71809753 57.19747925 4.85824585 C60.78374035 5.56661174 64.33562318 6.37342956 67.88208008 7.25854492 C68.90938232 7.51224854 69.93668457 7.76595215 70.99511719 8.02734375 C112.54352281 18.59060679 149.13473914 40.02615085 180.06958008 69.44604492 C180.91939453 70.25283691 180.91939453 70.25283691 181.78637695 71.07592773 C190.38137145 79.29578159 198.01057906 87.87973383 205.06958008 97.44604492 C205.49722656 98.01822754 205.92487305 98.59041016 206.36547852 99.17993164 C212.87858438 107.91912933 218.6718272 116.98081449 224.06958008 126.44604492 C224.41230957 127.0396582 224.75503906 127.63327148 225.1081543 128.24487305 C240.14332006 154.47184481 249.27398335 184.53823482 253.06958008 214.44604492 C253.16601807 215.19861572 253.26245605 215.95118652 253.36181641 216.7265625 C256.17480333 242.5110054 255.57115589 270.11257666 250.06958008 295.44604492 C249.88766113 296.34645508 249.70574219 297.24686523 249.51831055 298.17456055 C241.16481042 339.35231453 221.93540483 377.10223002 194.06958008 408.44604492 C193.54549561 409.05407959 193.02141113 409.66211426 192.48144531 410.28857422 C182.02046546 422.40541921 170.69683201 433.68053881 157.7878418 443.17211914 C156.03922326 444.46855158 154.32129205 445.7989321 152.60473633 447.13745117 C142.38989635 455.00256952 131.43847868 461.39675933 120.06958008 467.44604492 C119.17770996 467.92074219 118.28583984 468.39543945 117.36694336 468.88452148 C92.32491647 481.9920682 65.84160069 489.70664109 38.06958008 494.44604492 C37.26294922 494.59009766 36.45631836 494.73415039 35.62524414 494.88256836 C14.01327142 498.59789609 -11.36961053 498.3217227 -32.93041992 494.44604492 C-33.81600586 494.29006836 -34.7015918 494.1340918 -35.61401367 493.97338867 C-84.04079397 485.19806607 -129.30326085 464.34717528 -165.47729492 430.71166992 C-167.62600543 428.72719206 -169.81922038 426.83008706 -172.05541992 424.94604492 C-214.91477527 387.46579895 -242.48467039 323.72605002 -246.7355957 267.92504883 C-250.68063564 197.47790704 -229.74951936 132.06545028 -182.60913086 79.28149414 C-174.05501487 69.92869542 -165.03112683 61.12202795 -154.93041992 53.44604492 C-154.3901416 53.02935547 -153.84986328 52.61266602 -153.29321289 52.18334961 C-138.53340735 40.83729219 -122.7861725 31.33307215 -105.93041992 23.44604492 C-105.31585938 23.1527832 -104.70129883 22.85952148 -104.06811523 22.55737305 C-71.29719416 7.0115267 -36.1254438 -0.13839165 0 0 Z " fill="#012537" transform="translate(508.930419921875,121.553955078125)"/>
<path d="M0 0 C0.92413696 -0.0080365 1.84827393 -0.016073 2.80041504 -0.02435303 C48.97340077 -0.32856743 98.43427068 13.91099197 135.875 41.375 C136.83921875 42.06851563 137.8034375 42.76203125 138.796875 43.4765625 C163.94478881 61.91402263 191.3939284 87.16929245 203.875 116.375 C203.545 117.365 203.215 118.355 202.875 119.375 C201.49671021 119.35928955 201.49671021 119.35928955 200.09057617 119.34326172 C160.27276963 118.95170054 121.77879732 122.44563673 82.875 131.375 C81.23362061 131.75132568 81.23362061 131.75132568 79.55908203 132.13525391 C5.12093116 149.56505734 -62.79471558 183.62506681 -119.125 235.375 C-119.69943848 235.89900391 -120.27387695 236.42300781 -120.86572266 236.96289062 C-133.68745171 248.68298356 -146.01457894 260.88633015 -156.83984375 274.50390625 C-158.55756949 276.66207448 -160.29635709 278.78788311 -162.06640625 280.90234375 C-176.98436396 298.80662857 -189.63727588 318.12590103 -201.125 338.375 C-205.6677701 334.16123275 -207.82189913 329.47917366 -210.4375 323.9375 C-210.9217041 322.91342041 -211.4059082 321.88934082 -211.90478516 320.83422852 C-236.34910811 267.98548832 -237.78797218 204.96609837 -218.125 150.375 C-208.48104259 125.38912731 -195.83864636 101.60052623 -178.125 81.375 C-177.12146484 80.20710938 -177.12146484 80.20710938 -176.09765625 79.015625 C-165.67441499 67.13662378 -154.56700587 56.03714754 -141.84130859 46.64257812 C-140.13932411 45.38557906 -138.45455002 44.1077368 -136.76953125 42.828125 C-109.99295151 22.7998938 -77.67508844 10.139581 -45.125 3.375 C-44.27083496 3.19565918 -43.41666992 3.01631836 -42.53662109 2.83154297 C-28.48927554 0.06168259 -14.26244512 0.06910737 0 0 Z " fill="#FE9B3A" transform="translate(512.125,139.625)"/>
<path d="M0 0 C23.97206887 43.50486573 22.83024508 103.58853046 9.77246094 149.93530273 C0.3919585 181.75848462 -14.16438062 210.87135357 -36 236 C-36.5374585 236.6295459 -37.07491699 237.2590918 -37.62866211 237.90771484 C-42.14485447 243.15470571 -46.91560283 248.10829462 -51.8125 253 C-52.60205078 253.78874512 -53.39160156 254.57749023 -54.20507812 255.39013672 C-68.96962337 270 -68.96962337 270 -73 270 C-74.33984375 268.5234375 -74.33984375 268.5234375 -75.9375 266.375 C-78.51258442 262.94688555 -81.14922915 259.59278243 -83.86425781 256.27441406 C-103.48748573 232.03232912 -116.19038089 203.51850532 -122 173 C-122.13277344 172.31341309 -122.26554688 171.62682617 -122.40234375 170.91943359 C-129.16166538 134.43618496 -119.9961294 95.43129029 -99.33251953 64.91845703 C-80.10134147 37.23091632 -36.80657364 -2.23070143 0 0 Z " fill="#FBF6EC" transform="translate(727,279)"/>
<path d="M0 0 C1.05896484 -0.02900391 2.11792969 -0.05800781 3.20898438 -0.08789062 C4.73942383 -0.10045898 4.73942383 -0.10045898 6.30078125 -0.11328125 C7.23704346 -0.12786377 8.17330566 -0.14244629 9.13793945 -0.1574707 C12.5409682 0.46982321 13.49272119 1.6597884 15.6875 4.3125 C16.80717468 7.28567505 16.80717468 7.28567505 17.6862793 10.79345703 C17.85106781 11.43456421 18.01585632 12.07567139 18.18563843 12.73620605 C18.72415932 14.84448423 19.24288972 16.95711058 19.76171875 19.0703125 C20.13346506 20.53986635 20.50651605 22.00909071 20.8808136 23.47799683 C21.86088782 27.33756447 22.82455376 31.2010389 23.78442383 35.06567383 C24.95517526 39.76755483 26.14374404 44.46495576 27.33119678 49.16264153 C28.25446697 52.81570075 29.17453168 56.469461 30.08488464 60.12576294 C30.25271957 60.7964682 30.4205545 61.46717346 30.59347534 62.15820312 C31.04668149 63.96954001 31.49780345 65.78139801 31.94877625 67.59329224 C32.57517983 70.252095 32.57517983 70.252095 33.6875 72.3125 C33.97882812 71.24741211 34.27015625 70.18232422 34.5703125 69.08496094 C44.29240228 33.55933896 44.29240228 33.55933896 49.25 16 C49.57162109 14.84661133 49.89324219 13.69322266 50.22460938 12.50488281 C50.67223633 10.9304541 50.67223633 10.9304541 51.12890625 9.32421875 C51.51091187 7.97009888 51.51091187 7.97009888 51.90063477 6.58862305 C52.6875 4.3125 52.6875 4.3125 54.6875 1.3125 C57.11767578 0.97192383 57.11767578 0.97192383 60.1328125 1.01953125 C61.20917969 1.02919922 62.28554688 1.03886719 63.39453125 1.04882812 C65.08642578 1.0865332 65.08642578 1.0865332 66.8125 1.125 C67.94816406 1.13853516 69.08382812 1.15207031 70.25390625 1.16601562 C73.06557387 1.20145681 75.87630417 1.25086483 78.6875 1.3125 C79.04199219 2.53453125 79.39648438 3.7565625 79.76171875 5.015625 C83.70196431 18.57343181 87.68023374 32.12011154 91.67153931 45.66296387 C92.26641497 47.68238286 92.86063098 49.70199629 93.45419312 51.72180176 C94.29836554 54.59372191 95.14497229 57.46491372 95.9921875 60.3359375 C96.24920944 61.21202667 96.50623138 62.08811584 96.77104187 62.99075317 C97.0088588 63.79479584 97.24667572 64.5988385 97.49169922 65.42724609 C97.69930878 66.13207123 97.90691833 66.83689636 98.12081909 67.56307983 C98.66528037 69.39291249 98.66528037 69.39291249 99.6875 71.3125 C99.89603607 70.49452942 100.10457214 69.67655884 100.31942749 68.83380127 C102.28620654 61.12261398 104.25736764 53.41256313 106.23344994 45.70375443 C107.2491994 41.74061637 108.26325363 37.77706068 109.2734375 33.8125 C110.24851541 29.98597664 111.22804113 26.16061721 112.2106514 22.33602142 C112.58461518 20.87721007 112.95697885 19.41798756 113.3277092 17.95835114 C113.84753387 15.91285188 114.37304622 13.868893 114.89990234 11.82519531 C115.19746429 10.66159485 115.49502625 9.49799438 115.80160522 8.2991333 C116.6875 5.3125 116.6875 5.3125 118.6875 1.3125 C127.2675 1.3125 135.8475 1.3125 144.6875 1.3125 C144.02962701 7.23335687 143.44033333 11.86860779 141.86499023 17.42333984 C141.68262314 18.07378769 141.50025604 18.72423553 141.31236267 19.39439392 C140.71376185 21.52273672 140.1050875 23.64804745 139.49609375 25.7734375 C139.06770815 27.28756736 138.63990977 28.80186346 138.21266174 30.3163147 C137.08615867 34.30258274 135.95085822 38.28629468 134.81390381 42.26959229 C133.90986275 45.44258658 133.01224559 48.61737959 132.11491966 51.79227829 C129.53361539 60.92496019 126.92862929 70.05067232 124.30361176 79.17088318 C123.69544345 81.2848884 123.08878768 83.39932361 122.48223877 85.51379395 C121.38412699 89.3374223 120.27338282 93.15730545 119.16015625 96.9765625 C118.83558945 98.10653656 118.51102264 99.23651062 118.17662048 100.40072632 C117.87607254 101.42300323 117.5755246 102.44528015 117.26586914 103.49853516 C117.00761856 104.38610504 116.74936798 105.27367493 116.48329163 106.18814087 C115.6875 108.3125 115.6875 108.3125 113.6875 110.3125 C111.07373047 110.53955078 111.07373047 110.53955078 107.8046875 110.5078125 C106.63808594 110.50136719 105.47148438 110.49492188 104.26953125 110.48828125 C103.04621094 110.47152344 101.82289063 110.45476562 100.5625 110.4375 C99.33144531 110.42847656 98.10039063 110.41945313 96.83203125 110.41015625 C93.78366185 110.38652548 90.73567618 110.35358054 87.6875 110.3125 C83.9695842 103.50469472 81.68251661 96.53469744 79.4375 89.125 C78.86140991 87.24808472 78.86140991 87.24808472 78.27368164 85.33325195 C74.1260121 71.74036901 70.3745151 58.03647407 66.6875 44.3125 C65.55715698 47.94901557 64.4273826 51.58570737 63.29794312 55.22250366 C62.68574983 57.19313372 62.0729846 59.16358537 61.46020508 61.1340332 C59.43765546 67.64232856 57.42682984 74.15364642 55.44921875 80.67578125 C55.09923828 81.82643066 54.74925781 82.97708008 54.38867188 84.16259766 C53.73141497 86.32654321 53.07755771 88.49152541 52.42773438 90.65771484 C47.21633375 107.78366625 47.21633375 107.78366625 44.6875 110.3125 C42.76082493 110.39998207 40.83098139 110.41947334 38.90234375 110.41015625 C37.14760742 110.40532227 37.14760742 110.40532227 35.35742188 110.40039062 C34.12572266 110.39201172 32.89402344 110.38363281 31.625 110.375 C29.77165039 110.36823242 29.77165039 110.36823242 27.88085938 110.36132812 C24.81635883 110.34949608 21.75195279 110.33301173 18.6875 110.3125 C16.23798019 104.90838603 14.42193644 99.47854795 12.75390625 93.7890625 C12.47971863 92.86617935 12.20553101 91.9432962 11.92303467 90.9924469 C11.02787833 87.97534131 10.13885188 84.95646832 9.25 81.9375 C8.62880554 79.83885791 8.00730121 77.74030752 7.38549805 75.6418457 C2.72595807 59.9002783 -1.89484127 44.1471192 -6.49194336 28.38720703 C-6.84386497 27.18158112 -6.84386497 27.18158112 -7.20289612 25.95159912 C-7.64970157 24.41865214 -8.09526158 22.88534146 -8.53941345 21.35162354 C-9.91318227 16.61982428 -11.3653585 11.9205497 -12.94067383 7.2512207 C-13.38130818 4.95373064 -13.07992444 3.5062007 -12.3125 1.3125 C-9.82909749 -1.17090251 -3.33344815 0.03010338 0 0 Z " fill="#022435" transform="translate(551.3125,652.6875)"/>
<path d="M0 0 C1.39394737 -0.02409439 1.39394737 -0.02409439 2.8160553 -0.04867554 C7.13533835 -0.09339548 11.4544639 -0.1343215 15.77392578 -0.15722656 C18.03444828 -0.17363397 20.29492231 -0.20071673 22.55517578 -0.23925781 C43.47681036 -0.59399249 60.5625177 1.53702669 76.45483398 16.50537109 C87.27992472 27.96836896 91.312807 41.18816795 91.18310547 56.73486328 C90.64357866 71.26759061 84.34546362 82.93522941 73.95483398 92.94287109 C58.54592866 106.1206227 40.94751353 107.81489177 21.56054688 107.54956055 C18.29142978 107.5048458 15.02304952 107.48801429 11.75366211 107.47607422 C9.67878156 107.46267371 7.60391011 107.44775734 5.52905273 107.43115234 C4.06057137 107.42007195 4.06057137 107.42007195 2.56242371 107.4087677 C1.66671158 107.39593246 0.77099945 107.38309723 -0.15185547 107.36987305 C-1.33760918 107.35510674 -1.33760918 107.35510674 -2.5473175 107.34004211 C-4.35766602 107.19287109 -4.35766602 107.19287109 -5.35766602 106.19287109 C-5.45517077 104.82911981 -5.48398201 103.460372 -5.48464966 102.09313965 C-5.48746948 101.20972397 -5.49028931 100.32630829 -5.49319458 99.41612244 C-5.49117035 98.43946121 -5.48914612 97.46279999 -5.48706055 96.45654297 C-5.48881287 95.43387833 -5.49056519 94.41121368 -5.49237061 93.3575592 C-5.49679129 89.95889618 -5.49385037 86.5602847 -5.49047852 83.16162109 C-5.49115149 80.81131988 -5.49212146 78.46101874 -5.49337769 76.11071777 C-5.49485495 71.17764627 -5.49269918 66.24459284 -5.48803711 61.31152344 C-5.48233981 54.97236442 -5.48561866 48.63324773 -5.49160957 42.29409027 C-5.49521441 37.43869708 -5.49407696 32.58331402 -5.49148178 27.72792053 C-5.4908123 25.38981623 -5.49164168 23.05171103 -5.49396133 20.71360779 C-5.49648659 17.45211333 -5.49264906 14.19068847 -5.48706055 10.92919922 C-5.49009689 9.46420738 -5.49009689 9.46420738 -5.49319458 7.96961975 C-5.49037476 7.08620407 -5.48755493 6.20278839 -5.48464966 5.29260254 C-5.48427263 4.52051704 -5.48389561 3.74843155 -5.48350716 2.95294952 C-5.23054089 -0.58516583 -3.03472726 0.04759494 0 0 Z " fill="#012435" transform="translate(201.357666015625,790.80712890625)"/>
<path d="M0 0 C8.11286702 6.47720835 8.11286702 6.47720835 10.421875 9.93359375 C10.15964495 12.51507392 9.70217595 13.65800701 7.83959961 15.48925781 C7.17452393 15.97104492 6.50944824 16.45283203 5.82421875 16.94921875 C5.10556641 17.47773437 4.38691406 18.00625 3.64648438 18.55078125 C2.89173828 19.08960938 2.13699219 19.6284375 1.359375 20.18359375 C0.60076172 20.73789062 -0.15785156 21.2921875 -0.93945312 21.86328125 C-2.81234366 23.2296668 -4.69181702 24.58582337 -6.578125 25.93359375 C-9.53180291 24.49261538 -12.14297484 22.89405061 -14.828125 20.99609375 C-22.92198252 15.61334948 -29.77104446 13.81857684 -39.578125 14.93359375 C-48.2511376 17.03311265 -54.37562443 21.95210655 -59.890625 28.80859375 C-64.98333081 38.23953043 -66.20062652 47.7303881 -63.390625 58.18359375 C-60.36156377 66.97491565 -55.5046748 73.62048779 -47.328125 78.19140625 C-39.15847294 81.93583011 -30.78907758 82.33079159 -22.265625 79.43359375 C-16.45837571 76.77271586 -11.99911761 72.71182909 -9.72216797 66.65771484 C-8.97417793 64.42511103 -8.2585982 62.18760444 -7.578125 59.93359375 C-8.3302124 59.93883057 -9.0822998 59.94406738 -9.85717773 59.94946289 C-13.24331842 59.97016602 -16.62944584 59.98323252 -20.015625 59.99609375 C-21.19962891 60.00447266 -22.38363281 60.01285156 -23.60351562 60.02148438 C-24.72822266 60.02470703 -25.85292969 60.02792969 -27.01171875 60.03125 C-28.57490845 60.03910522 -28.57490845 60.03910522 -30.16967773 60.04711914 C-32.578125 59.93359375 -32.578125 59.93359375 -33.578125 58.93359375 C-33.6764971 57.6031575 -33.70891092 56.26766031 -33.7109375 54.93359375 C-33.71287109 53.72703125 -33.71287109 53.72703125 -33.71484375 52.49609375 C-33.71097656 51.65046875 -33.70710938 50.80484375 -33.703125 49.93359375 C-33.70892578 48.66515625 -33.70892578 48.66515625 -33.71484375 47.37109375 C-33.71355469 46.56671875 -33.71226562 45.76234375 -33.7109375 44.93359375 C-33.70980957 44.19109375 -33.70868164 43.44859375 -33.70751953 42.68359375 C-33.578125 40.93359375 -33.578125 40.93359375 -32.578125 39.93359375 C-31.01813452 39.83512408 -29.45371956 39.80560757 -27.890625 39.80419922 C-26.89289063 39.80104706 -25.89515625 39.7978949 -24.8671875 39.79464722 C-23.78179687 39.79667145 -22.69640625 39.79869568 -21.578125 39.80078125 C-19.91910156 39.79934616 -19.91910156 39.79934616 -18.2265625 39.79788208 C-15.88281192 39.79720008 -13.53905947 39.79905571 -11.1953125 39.80322266 C-7.59370712 39.80857061 -3.99222647 39.80327828 -0.390625 39.796875 C1.88020861 39.79753578 4.15104214 39.79881693 6.421875 39.80078125 C7.50726563 39.79875702 8.59265625 39.79673279 9.7109375 39.79464722 C10.70867187 39.79779938 11.70640625 39.80095154 12.734375 39.80419922 C13.61738281 39.80499481 14.50039063 39.80579041 15.41015625 39.80661011 C17.421875 39.93359375 17.421875 39.93359375 18.421875 40.93359375 C19.95412481 56.81826898 18.17977475 71.86497801 8.421875 84.93359375 C-0.52369889 95.69623733 -12.68680688 102.29084451 -26.578125 103.93359375 C-45.17757127 105.0773097 -60.68262563 101.28730992 -75.390625 89.18359375 C-86.06247638 79.11106736 -90.92117699 65.54168863 -91.81640625 51.0859375 C-92.24021612 34.9467996 -87.94162692 21.17522639 -77.390625 8.68359375 C-58.25950436 -11.46955671 -23.12054263 -16.28947321 0 0 Z " fill="#012435" transform="translate(396.578125,661.06640625)"/>
<path d="M0 0 C1.53333984 -0.00386719 1.53333984 -0.00386719 3.09765625 -0.0078125 C4.16886719 -0.00007812 5.24007812 0.00765625 6.34375 0.015625 C7.95056641 0.00402344 7.95056641 0.00402344 9.58984375 -0.0078125 C10.61207031 -0.00523437 11.63429687 -0.00265625 12.6875 0 C13.62787109 0.00225586 14.56824219 0.00451172 15.53710938 0.00683594 C17.84375 0.265625 17.84375 0.265625 19.84375 2.265625 C20.01923636 5.35003356 20.07512053 8.34601601 20.0390625 11.4296875 C20.03704834 12.23365967 20.03503418 13.03763184 20.03295898 13.8659668 C20.02248113 16.87424409 19.99455859 19.88244017 19.96875 22.890625 C19.9275 29.614375 19.88625 36.338125 19.84375 43.265625 C33.70375 43.265625 47.56375 43.265625 61.84375 43.265625 C61.80414433 29.48838387 61.80414433 29.48838387 61.75366211 15.71118164 C61.75074302 13.9910488 61.74819445 12.27091528 61.74609375 10.55078125 C61.74097778 9.64904175 61.73586182 8.74730225 61.73059082 7.8182373 C61.73028118 5.63370755 61.7812913 3.4492617 61.84375 1.265625 C63.55942792 -0.45005292 65.81747735 0.13546675 68.15625 0.1328125 C69.23132813 0.13152344 70.30640625 0.13023437 71.4140625 0.12890625 C72.54585938 0.13277344 73.67765625 0.13664063 74.84375 0.140625 C75.97554688 0.13675781 77.10734375 0.13289062 78.2734375 0.12890625 C79.34851563 0.13019531 80.42359375 0.13148438 81.53125 0.1328125 C82.52511719 0.13394043 83.51898438 0.13506836 84.54296875 0.13623047 C86.84375 0.265625 86.84375 0.265625 87.84375 1.265625 C87.93925698 2.68241411 87.96563483 4.10393741 87.96400452 5.52394104 C87.96606651 6.90171722 87.96606651 6.90171722 87.96817017 8.30732727 C87.96277725 9.83078011 87.96277725 9.83078011 87.95727539 11.38500977 C87.95742142 12.44829498 87.95756744 13.5115802 87.9577179 14.60708618 C87.95701825 18.14042158 87.94922343 21.673705 87.94140625 25.20703125 C87.93954225 27.64940868 87.93811827 30.09178649 87.93711853 32.53416443 C87.93329189 38.97696964 87.92346037 45.41975248 87.91241455 51.86254883 C87.90220356 58.43114926 87.89762158 64.9997533 87.89257812 71.56835938 C87.88183823 84.46745749 87.86495104 97.36654006 87.84375 110.265625 C83.69793113 110.29449251 79.55213784 110.31237827 75.40625 110.328125 C74.22224609 110.33650391 73.03824219 110.34488281 71.81835938 110.35351562 C70.69365234 110.35673828 69.56894531 110.35996094 68.41015625 110.36328125 C66.84696655 110.37113647 66.84696655 110.37113647 65.25219727 110.37915039 C62.84375 110.265625 62.84375 110.265625 61.84375 109.265625 C61.75501468 106.16332356 61.72849313 103.08275141 61.74609375 99.98046875 C61.74710083 99.1558313 61.74810791 98.33119385 61.74914551 97.48156738 C61.75439408 94.38873919 61.76835523 91.29593076 61.78125 88.203125 C61.801875 81.29375 61.8225 74.384375 61.84375 67.265625 C47.98375 67.265625 34.12375 67.265625 19.84375 67.265625 C19.88335567 81.04286613 19.88335567 81.04286613 19.93383789 94.82006836 C19.93675698 96.5402012 19.93930555 98.26033472 19.94140625 99.98046875 C19.94652222 100.88220825 19.95163818 101.78394775 19.95690918 102.7130127 C19.95721882 104.89754245 19.9062087 107.0819883 19.84375 109.265625 C18.09829395 111.01108105 15.68250783 110.3958566 13.3125 110.3984375 C12.19230469 110.39972656 11.07210937 110.40101563 9.91796875 110.40234375 C8.73847656 110.39847656 7.55898437 110.39460937 6.34375 110.390625 C4.57451172 110.39642578 4.57451172 110.39642578 2.76953125 110.40234375 C1.64933594 110.40105469 0.52914062 110.39976562 -0.625 110.3984375 C-1.66076172 110.39730957 -2.69652344 110.39618164 -3.76367188 110.39501953 C-6.15625 110.265625 -6.15625 110.265625 -7.15625 109.265625 C-7.2559901 107.8788492 -7.28699662 106.48704973 -7.28996277 105.09669495 C-7.29422775 104.19789612 -7.29849274 103.29909729 -7.30288696 102.37306213 C-7.30243378 101.37927048 -7.30198059 100.38547882 -7.30151367 99.36157227 C-7.30487228 98.32100677 -7.3082309 97.28044128 -7.31169128 96.20834351 C-7.32123341 92.7495608 -7.32314601 89.29082632 -7.32421875 85.83203125 C-7.327429 83.43928507 -7.33079289 81.04653909 -7.33430481 78.65379333 C-7.34030421 73.63076319 -7.34214387 68.60775027 -7.34155273 63.5847168 C-7.34145105 57.13352534 -7.35510608 50.6824438 -7.37232494 44.23127842 C-7.38341788 39.28748564 -7.38547278 34.34371965 -7.38494301 29.3999157 C-7.38612711 27.02076781 -7.39057278 24.64161931 -7.39827538 22.2624836 C-7.40802103 18.94126712 -7.40521877 15.62029224 -7.39916992 12.29907227 C-7.40478943 11.30730484 -7.41040894 10.31553741 -7.41619873 9.29371643 C-7.41200424 8.39209778 -7.40780975 7.49047913 -7.40348816 6.5615387 C-7.40403293 5.77562631 -7.40457769 4.98971392 -7.40513897 4.179986 C-6.82379582 -0.29148841 -3.73846299 0.00896821 0 0 Z " fill="#022535" transform="translate(152.15625,652.734375)"/>
<path d="M0 0 C1.07507813 -0.00128906 2.15015625 -0.00257813 3.2578125 -0.00390625 C4.38960938 -0.00003906 5.52140625 0.00382813 6.6875 0.0078125 C7.81929688 0.00394531 8.95109375 0.00007812 10.1171875 -0.00390625 C11.19226563 -0.00261719 12.26734375 -0.00132812 13.375 0 C14.86580078 0.00169189 14.86580078 0.00169189 16.38671875 0.00341797 C18.6875 0.1328125 18.6875 0.1328125 19.6875 1.1328125 C19.77624135 4.23532451 19.80268455 7.3154937 19.78515625 10.41796875 C19.7837413 11.34878769 19.78232635 12.27960663 19.78086853 13.2386322 C19.77525172 16.22422441 19.7626964 19.20974279 19.75 22.1953125 C19.74498716 24.21419163 19.74042388 26.23307193 19.73632812 28.25195312 C19.72612587 33.21229121 19.70655382 38.1724688 19.6875 43.1328125 C33.2175 43.1328125 46.7475 43.1328125 60.6875 43.1328125 C60.60833267 29.72965598 60.60833267 29.72965598 60.50732422 16.32666016 C60.50148463 14.65006768 60.49638781 12.97347238 60.4921875 11.296875 C60.48195557 10.42184326 60.47172363 9.54681152 60.46118164 8.64526367 C60.46055076 6.47313628 60.56411709 4.30143291 60.6875 2.1328125 C63.25738681 -0.43707431 64.27660053 -0.12425525 67.84375 -0.1328125 C69.37708984 -0.13667969 69.37708984 -0.13667969 70.94140625 -0.140625 C72.01261719 -0.13289062 73.08382812 -0.12515625 74.1875 -0.1171875 C75.79431641 -0.12878906 75.79431641 -0.12878906 77.43359375 -0.140625 C78.45582031 -0.13804687 79.47804688 -0.13546875 80.53125 -0.1328125 C81.47162109 -0.13055664 82.41199219 -0.12830078 83.38085938 -0.12597656 C85.6875 0.1328125 85.6875 0.1328125 87.6875 2.1328125 C87.93638897 4.0471735 87.93638897 4.0471735 87.93473816 6.4287262 C87.93893265 7.33034485 87.94312714 8.2319635 87.94744873 9.16090393 C87.94182922 10.15267136 87.93620972 11.14443878 87.93041992 12.16625977 C87.93231827 13.20857758 87.93421661 14.25089539 87.93617249 15.32479858 C87.93988855 18.78301424 87.92916487 22.24102164 87.91796875 25.69921875 C87.9167774 28.09293086 87.91632369 30.48664344 87.9165802 32.88035583 C87.91501394 37.90163084 87.90671283 42.92283469 87.89331055 47.9440918 C87.87631137 54.39644823 87.87249638 60.84872644 87.87325573 67.30110264 C87.87298446 72.24485528 87.86751041 77.18859065 87.86025429 82.13233757 C87.85706118 84.51230679 87.85509872 86.89227797 87.85436058 89.27224922 C87.85220431 92.59112035 87.84347587 95.9099067 87.83276367 99.22875977 C87.83321686 100.22255142 87.83367004 101.21634308 87.83413696 102.24024963 C87.82987198 103.13904846 87.82560699 104.03784729 87.82121277 104.96388245 C87.81953692 105.74941781 87.81786108 106.53495317 87.81613445 107.34429264 C87.6875 109.1328125 87.6875 109.1328125 86.6875 110.1328125 C84.83380389 110.22018895 82.97682459 110.23979403 81.12109375 110.23046875 C80.10845459 110.22797119 79.09581543 110.22547363 78.05249023 110.22290039 C76.75641846 110.21379639 75.46034668 110.20469238 74.125 110.1953125 C70.020625 110.1746875 65.91625 110.1540625 61.6875 110.1328125 C61.1925 89.3428125 61.1925 89.3428125 60.6875 68.1328125 C40.3925 67.6378125 40.3925 67.6378125 19.6875 67.1328125 C19.69910156 70.15308594 19.71070313 73.17335938 19.72265625 76.28515625 C19.73044609 79.1975087 19.73652326 82.10986 19.74243164 85.0222168 C19.74747278 87.05249548 19.75430557 89.08277052 19.76293945 91.11303711 C19.77501467 94.02458597 19.78073034 96.936087 19.78515625 99.84765625 C19.79031754 100.7611937 19.79547882 101.67473114 19.80079651 102.61595154 C19.80099168 104.78856677 19.74961805 106.96108546 19.6875 109.1328125 C17.97182208 110.84849042 15.71377265 110.26297075 13.375 110.265625 C12.29992187 110.26691406 11.22484375 110.26820313 10.1171875 110.26953125 C8.98539062 110.26566406 7.85359375 110.26179687 6.6875 110.2578125 C5.55570312 110.26167969 4.42390625 110.26554688 3.2578125 110.26953125 C2.18273437 110.26824219 1.10765625 110.26695312 0 110.265625 C-0.99386719 110.26449707 -1.98773438 110.26336914 -3.01171875 110.26220703 C-5.3125 110.1328125 -5.3125 110.1328125 -6.3125 109.1328125 C-6.41012523 107.7310292 -6.43881658 106.32436797 -6.43948364 104.91918945 C-6.44230347 104.01053131 -6.44512329 103.10187317 -6.44802856 102.16567993 C-6.44600433 101.16096649 -6.4439801 100.15625305 -6.44189453 99.12109375 C-6.44364685 98.0691684 -6.44539917 97.01724304 -6.44720459 95.93344116 C-6.45162543 92.43738176 -6.44868429 88.94137247 -6.4453125 85.4453125 C-6.44598547 83.02775055 -6.44695544 80.61018867 -6.44821167 78.19262695 C-6.44968896 73.11832029 -6.44753309 68.04403119 -6.44287109 62.96972656 C-6.4371738 56.44896547 -6.44045263 49.92824554 -6.44644356 43.40748596 C-6.45004833 38.41312344 -6.44891097 33.41877076 -6.44631577 28.42440796 C-6.44564626 26.01931758 -6.44647572 23.61422632 -6.44879532 21.20913696 C-6.45132048 17.85424415 -6.44748317 14.499419 -6.44189453 11.14453125 C-6.44391876 10.13981781 -6.44594299 9.13510437 -6.44802856 8.09994507 C-6.44379883 6.73695786 -6.44379883 6.73695786 -6.43948364 5.34643555 C-6.43910662 4.55222702 -6.43872959 3.75801849 -6.43834114 2.93974304 C-6.16654087 -0.96298872 -3.2575074 0.00369691 0 0 Z " fill="#022535" transform="translate(439.3125,652.8671875)"/>
<path d="M0 0 C1.12148438 0.00322266 2.24296875 0.00644531 3.3984375 0.00976562 C4.5740625 0.01814453 5.7496875 0.02652344 6.9609375 0.03515625 C8.14429688 0.03966797 9.32765625 0.04417969 10.546875 0.04882812 C13.47661257 0.06064158 16.40625022 0.07711367 19.3359375 0.09765625 C24.02331741 8.58376125 27.30731772 17.57766342 30.69488525 26.63290405 C32.44320184 31.30416609 34.21009189 35.96839136 35.9765625 40.6328125 C36.51707748 42.06129265 36.51707748 42.06129265 37.06851196 43.51863098 C40.78034196 53.30803232 44.6054914 63.05157384 48.4609375 72.78515625 C48.76618347 73.55645874 49.07142944 74.32776123 49.38592529 75.12243652 C49.979953 76.62286269 50.57445538 78.12310103 51.16946411 79.62313843 C51.736265 81.05281583 52.30179241 82.48299888 52.86593628 83.91372681 C54.24656334 87.4048646 55.65880777 90.87730223 57.13183594 94.33056641 C57.41711151 95.01029007 57.70238708 95.69001373 57.99630737 96.39033508 C58.77589534 98.24306133 59.56887222 100.09013773 60.36279297 101.93676758 C61.37511075 105.22489561 61.35837448 106.86044594 60.3359375 110.09765625 C56.06545917 110.24251644 51.79560917 110.33158241 47.5234375 110.41015625 C46.30849609 110.45205078 45.09355469 110.49394531 43.84179688 110.53710938 C42.67841797 110.55322266 41.51503906 110.56933594 40.31640625 110.5859375 C38.70608521 110.62521362 38.70608521 110.62521362 37.06323242 110.6652832 C34.3359375 110.09765625 34.3359375 110.09765625 32.54882812 107.77099609 C31.14688504 104.68096453 29.85313727 101.58289409 28.6484375 98.41015625 C28.21144531 97.27191406 27.77445313 96.13367188 27.32421875 94.9609375 C26.3359375 92.09765625 26.3359375 92.09765625 26.3359375 90.09765625 C13.1359375 90.42765625 -0.0640625 90.75765625 -13.6640625 91.09765625 C-15.6440625 96.70765625 -17.6240625 102.31765625 -19.6640625 108.09765625 C-21.6640625 110.09765625 -21.6640625 110.09765625 -24.27783203 110.32470703 C-25.35661621 110.3142334 -26.43540039 110.30375977 -27.546875 110.29296875 C-28.71347656 110.28652344 -29.88007812 110.28007813 -31.08203125 110.2734375 C-32.30535156 110.25667969 -33.52867187 110.23992187 -34.7890625 110.22265625 C-36.02011719 110.21363281 -37.25117187 110.20460938 -38.51953125 110.1953125 C-41.56790065 110.17168173 -44.61588632 110.13873679 -47.6640625 110.09765625 C-49.19650297 106.58674974 -48.19446205 104.11746909 -46.87335205 100.66853333 C-46.44490997 99.60091011 -46.44490997 99.60091011 -46.0078125 98.51171875 C-45.71428894 97.75513474 -45.42076538 96.99855072 -45.11834717 96.21903992 C-44.14414182 93.71597644 -43.15423135 91.21944319 -42.1640625 88.72265625 C-41.47791778 86.96935521 -40.7927098 85.21568733 -40.10839844 83.46166992 C-38.32571445 78.90094158 -36.52944588 74.3456997 -34.72875977 69.79205322 C-33.37410597 66.36387209 -32.02529648 62.93340812 -30.67658997 59.50288391 C-28.16504165 53.11509404 -25.64596106 46.73037991 -23.1146698 40.35038757 C-20.49735629 33.75337897 -17.90202281 27.14899704 -15.34765625 20.52734375 C-14.58786929 18.56486976 -13.82770271 16.60254313 -13.06750488 14.64022827 C-12.36918223 12.83081058 -11.6781471 11.01858569 -10.98730469 9.20629883 C-10.57512695 8.14306396 -10.16294922 7.0798291 -9.73828125 5.984375 C-9.38338623 5.05842529 -9.02849121 4.13247559 -8.6628418 3.1784668 C-6.7919202 -0.71932464 -3.929409 -0.0198455 0 0 Z " fill="#022435" transform="translate(738.6640625,652.90234375)"/>
<path d="M0 0 C3.32181477 2.81448306 6.04253832 5.65465346 8.5859375 9.1953125 C7.03188031 13.48651559 3.77776561 15.76942155 0.2734375 18.4453125 C-0.29568359 18.90421875 -0.86480469 19.363125 -1.45117188 19.8359375 C-3.94283344 21.75832162 -5.95102208 23.10734164 -9.06640625 23.69921875 C-12.03246342 23.06257753 -13.41078487 21.89824415 -15.6640625 19.8828125 C-22.43780381 14.36098378 -28.92439208 12.5591364 -37.6484375 12.8515625 C-46.03404244 13.89384108 -52.86712504 17.88413032 -58.4140625 24.1953125 C-64.8411717 33.66011013 -65.34822023 43.0228931 -64.4140625 54.1953125 C-62.8310255 61.99958409 -58.30420084 67.96674766 -52.4140625 73.1953125 C-45.18400982 77.93676009 -37.95196479 78.97663247 -29.4140625 78.1953125 C-22.70056951 76.6677496 -18.28669125 73.7322627 -13.7890625 68.5859375 C-11.86256872 65.23646536 -11.23485593 61.96780539 -10.4140625 58.1953125 C-11.49675415 58.15772827 -11.49675415 58.15772827 -12.60131836 58.11938477 C-15.8515975 58.00379948 -19.10155938 57.88090476 -22.3515625 57.7578125 C-23.48787109 57.71849609 -24.62417969 57.67917969 -25.79492188 57.63867188 C-26.87451172 57.59677734 -27.95410156 57.55488281 -29.06640625 57.51171875 C-30.06663818 57.47506104 -31.06687012 57.43840332 -32.09741211 57.40063477 C-34.4140625 57.1953125 -34.4140625 57.1953125 -35.4140625 56.1953125 C-35.51393225 53.35196202 -35.55284131 50.53834087 -35.5390625 47.6953125 C-35.54486328 46.49841797 -35.54486328 46.49841797 -35.55078125 45.27734375 C-35.54067017 39.32192017 -35.54067017 39.32192017 -34.4140625 38.1953125 C-32.85407202 38.09684283 -31.28965706 38.06732632 -29.7265625 38.06591797 C-28.72882812 38.06276581 -27.73109375 38.05961365 -26.703125 38.05636597 C-25.61773438 38.0583902 -24.53234375 38.06041443 -23.4140625 38.0625 C-21.75503906 38.06106491 -21.75503906 38.06106491 -20.0625 38.05960083 C-17.71874942 38.05891883 -15.37499697 38.06077446 -13.03125 38.06494141 C-9.42964462 38.07028936 -5.82816397 38.06499703 -2.2265625 38.05859375 C0.04427111 38.05925453 2.31510464 38.06053568 4.5859375 38.0625 C5.67132812 38.06047577 6.75671875 38.05845154 7.875 38.05636597 C8.87273437 38.05951813 9.87046875 38.06267029 10.8984375 38.06591797 C11.78144531 38.06671356 12.66445313 38.06750916 13.57421875 38.06832886 C15.5859375 38.1953125 15.5859375 38.1953125 16.5859375 39.1953125 C17.7036882 56.84111451 15.50851767 71.58251327 3.63671875 85.4765625 C-5.56737142 95.16888535 -17.4998835 100.51273358 -30.875 101.43359375 C-48.21416437 101.7623803 -63.65874622 97.26176054 -76.609375 85.1171875 C-88.52123967 72.43182513 -91.94356756 57.18528266 -91.6875 40.32421875 C-91.21063988 27.42774933 -85.47065514 15.26688663 -76.6640625 5.8828125 C-55.95842876 -13.3438474 -23.26112211 -17.38938255 0 0 Z " fill="#022435" transform="translate(620.4140625,798.8046875)"/>
<path d="M0 0 C1.02996094 -0.00128906 2.05992187 -0.00257813 3.12109375 -0.00390625 C4.74724609 0.00189453 4.74724609 0.00189453 6.40625 0.0078125 C7.49035156 0.00394531 8.57445312 0.00007812 9.69140625 -0.00390625 C10.72136719 -0.00261719 11.75132812 -0.00132812 12.8125 0 C14.24045898 0.00169189 14.24045898 0.00169189 15.69726562 0.00341797 C17.90625 0.1328125 17.90625 0.1328125 18.90625 1.1328125 C19.06654688 4.08810754 19.16582328 7.02263707 19.22265625 9.98046875 C19.24343735 10.8668956 19.26421844 11.75332245 19.28562927 12.66661072 C19.351224 15.5094295 19.41005552 18.35234367 19.46875 21.1953125 C19.5119258 23.11784856 19.55553978 25.04037484 19.59960938 26.96289062 C19.70774336 31.68610143 19.80674247 36.40938042 19.90625 41.1328125 C39.21125 41.6278125 39.21125 41.6278125 58.90625 42.1328125 C58.89464844 39.18472656 58.88304687 36.23664062 58.87109375 33.19921875 C58.86330384 30.35636503 58.8572267 27.51351248 58.85131836 24.6706543 C58.84627733 22.68887809 58.83944462 20.70710561 58.83081055 18.7253418 C58.81873485 15.88329141 58.81301955 13.04129003 58.80859375 10.19921875 C58.80343246 9.30755508 58.79827118 8.41589142 58.79295349 7.49720764 C58.79275823 5.37540649 58.8441497 3.2537047 58.90625 1.1328125 C59.90625 0.1328125 59.90625 0.1328125 62.22290039 0.01928711 C63.22313232 0.02452393 64.22336426 0.02976074 65.25390625 0.03515625 C66.33349609 0.03837891 67.41308594 0.04160156 68.52539062 0.04492188 C70.22985352 0.05749023 70.22985352 0.05749023 71.96875 0.0703125 C73.67901367 0.07708008 73.67901367 0.07708008 75.42382812 0.08398438 C78.25135351 0.09581503 81.0787764 0.1122984 83.90625 0.1328125 C85.05428033 2.42887316 85.03429708 3.71724511 85.03996277 6.2701416 C85.04636024 7.56991692 85.04636024 7.56991692 85.05288696 8.89595032 C85.05220718 10.32514046 85.05220718 10.32514046 85.05151367 11.78320312 C85.05487228 12.78490036 85.0582309 13.7865976 85.06169128 14.81864929 C85.07121939 18.14213284 85.07314522 21.46556613 85.07421875 24.7890625 C85.07742964 27.09069846 85.08079358 29.39233421 85.08430481 31.69396973 C85.09030046 36.5227099 85.09214422 41.35143215 85.09155273 46.18017578 C85.091451 52.38135661 85.10511323 58.58242324 85.12232494 64.78357697 C85.13341744 69.53778618 85.1354728 74.29196752 85.13494301 79.04618835 C85.1361269 81.33323053 85.1405714 83.62027335 85.14827538 85.90730286 C85.15802144 89.09909177 85.15521878 92.29062932 85.14916992 95.48242188 C85.15478943 96.4352153 85.16040894 97.38800873 85.16619873 98.36967468 C85.16200424 99.23619156 85.15780975 100.10270844 85.15348816 100.9954834 C85.15403293 101.75059959 85.15457769 102.50571579 85.15513897 103.28371429 C84.90625 105.1328125 84.90625 105.1328125 82.90625 107.1328125 C80.69140625 107.39160156 80.69140625 107.39160156 77.96875 107.3984375 C76.99164062 107.40101563 76.01453125 107.40359375 75.0078125 107.40625 C73.98429688 107.39851562 72.96078125 107.39078125 71.90625 107.3828125 C70.88273438 107.39054688 69.85921875 107.39828125 68.8046875 107.40625 C67.82757812 107.40367187 66.85046875 107.40109375 65.84375 107.3984375 C64.94527344 107.39618164 64.04679688 107.39392578 63.12109375 107.39160156 C60.90625 107.1328125 60.90625 107.1328125 58.90625 105.1328125 C58.73071581 102.04756311 58.67502203 99.05317048 58.7109375 95.96875 C58.7137674 95.06154205 58.71659729 94.15433411 58.71951294 93.21963501 C58.73072847 90.31556127 58.75583537 87.41179338 58.78125 84.5078125 C58.79127803 82.54167111 58.80040419 80.5755249 58.80859375 78.609375 C58.82897269 73.78364088 58.86811847 68.95856996 58.90625 64.1328125 C45.70625 64.1328125 32.50625 64.1328125 18.90625 64.1328125 C18.92945313 67.06929687 18.95265625 70.00578125 18.9765625 73.03125 C18.99214889 75.86750862 19.0042994 78.70376252 19.01611328 81.54003906 C19.02618627 83.51499559 19.03984521 85.48993716 19.05712891 87.46484375 C19.08132039 90.29951668 19.09271991 93.13399288 19.1015625 95.96875 C19.11188507 96.85525238 19.12220764 97.74175476 19.13284302 98.65512085 C19.1332407 100.81567202 19.02897534 102.97574968 18.90625 105.1328125 C16.90625 107.1328125 16.90625 107.1328125 14.67553711 107.37573242 C13.31827515 107.36956909 13.31827515 107.36956909 11.93359375 107.36328125 C10.95197266 107.36134766 9.97035156 107.35941406 8.95898438 107.35742188 C7.93095703 107.34517578 6.90292969 107.33292969 5.84375 107.3203125 C4.81185547 107.31966797 3.77996094 107.31902344 2.71679688 107.31835938 C-4.95359003 107.27297247 -4.95359003 107.27297247 -6.09375 106.1328125 C-6.19125476 104.76906121 -6.22006599 103.40031341 -6.22073364 102.03308105 C-6.22355347 101.14966537 -6.22637329 100.26624969 -6.22927856 99.35606384 C-6.22725433 98.37940262 -6.2252301 97.40274139 -6.22314453 96.39648438 C-6.22489685 95.37381973 -6.22664917 94.35115509 -6.22845459 93.29750061 C-6.23287527 89.89883758 -6.22993435 86.50022611 -6.2265625 83.1015625 C-6.22723548 80.75126129 -6.22820545 78.40096015 -6.22946167 76.05065918 C-6.23093894 71.11758768 -6.22878316 66.18453425 -6.22412109 61.25146484 C-6.2184238 54.91230583 -6.22170265 48.57318914 -6.22769356 42.23403168 C-6.23129839 37.37863849 -6.23016094 32.52325542 -6.22756577 27.66786194 C-6.22689628 25.32975764 -6.22772566 22.99165244 -6.23004532 20.65354919 C-6.23257057 17.39205473 -6.22873304 14.13062987 -6.22314453 10.86914062 C-6.22618088 9.40414879 -6.22618088 9.40414879 -6.22927856 7.90956116 C-6.22645874 7.02614548 -6.22363892 6.1427298 -6.22073364 5.23254395 C-6.22035662 4.46045845 -6.21997959 3.68837296 -6.21959114 2.89289093 C-5.94847321 -0.89910287 -3.16974506 0.00375562 0 0 Z " fill="#032636" transform="translate(661.09375,790.8671875)"/>
<path d="M0 0 C1.00730415 -0.00262848 1.00730415 -0.00262848 2.03495789 -0.00531006 C4.26486765 -0.00972777 6.49469874 -0.00679089 8.72460938 -0.00341797 C10.26778173 -0.00409103 11.81095398 -0.00506108 13.35412598 -0.00631714 C16.59237678 -0.007794 19.83060005 -0.00563993 23.06884766 -0.00097656 C27.2287846 0.00472073 31.38865704 0.00144166 35.54859161 -0.00454903 C38.73635345 -0.00815496 41.92409989 -0.00701591 45.11186218 -0.00442123 C46.6461335 -0.00375205 48.1804062 -0.00458008 49.7146759 -0.00690079 C51.85539478 -0.00942784 53.9960078 -0.00558601 56.13671875 0 C57.96752991 0.00119339 57.96752991 0.00119339 59.83532715 0.00241089 C62.56835938 0.12939453 62.56835938 0.12939453 63.56835938 1.12939453 C63.66716734 2.60592117 63.69915183 4.08706689 63.70117188 5.56689453 C63.70246094 6.46150391 63.70375 7.35611328 63.70507812 8.27783203 C63.70121094 9.21884766 63.69734375 10.15986328 63.69335938 11.12939453 C63.69722656 12.07041016 63.70109375 13.01142578 63.70507812 13.98095703 C63.70378906 14.87556641 63.7025 15.77017578 63.70117188 16.69189453 C63.70004395 17.51818359 63.69891602 18.34447266 63.69775391 19.19580078 C63.56835938 21.12939453 63.56835938 21.12939453 62.56835938 22.12939453 C61.15610892 22.22226714 59.73927003 22.24686225 58.32397461 22.24291992 C56.97268715 22.24280663 56.97268715 22.24280663 55.59410095 22.24269104 C54.61494217 22.23752975 53.63578339 22.23236847 52.62695312 22.22705078 C51.62954605 22.22563583 50.63213898 22.22422089 49.60450745 22.22276306 C46.40492814 22.21714567 43.20541769 22.20459024 40.00585938 22.19189453 C37.84244892 22.18688177 35.67903738 22.18231848 33.515625 22.17822266 C28.19982164 22.16801958 22.88416798 22.14844761 17.56835938 22.12939453 C17.56835938 28.72939453 17.56835938 35.32939453 17.56835938 42.12939453 C30.43835938 42.12939453 43.30835938 42.12939453 56.56835938 42.12939453 C57.73417856 44.46103289 57.69741547 45.85092935 57.70117188 48.44580078 C57.70246094 49.29207031 57.70375 50.13833984 57.70507812 51.01025391 C57.70121094 51.89519531 57.69734375 52.78013672 57.69335938 53.69189453 C57.69722656 54.58070313 57.70109375 55.46951172 57.70507812 56.38525391 C57.70378906 57.23023438 57.7025 58.07521484 57.70117188 58.94580078 C57.70004395 59.72383057 57.69891602 60.50186035 57.69775391 61.3034668 C57.56835938 63.12939453 57.56835938 63.12939453 56.56835938 64.12939453 C53.68402117 64.21804661 50.8237378 64.24460749 47.93945312 64.22705078 C46.64310692 64.22492836 46.64310692 64.22492836 45.3205719 64.22276306 C42.54896645 64.21714692 39.77744057 64.20459172 37.00585938 64.19189453 C35.13151158 64.18688161 33.25716252 64.18231834 31.3828125 64.17822266 C26.77793916 64.16802134 22.17323877 64.1484492 17.56835938 64.12939453 C17.56835938 71.05939453 17.56835938 77.98939453 17.56835938 85.12939453 C20.80519531 85.11779297 24.04203125 85.10619141 27.37695312 85.09423828 C30.49780174 85.08644866 33.61864928 85.08037136 36.73950195 85.07446289 C38.9152881 85.06942145 41.09107084 85.06258846 43.2668457 85.05395508 C46.38689004 85.04188115 49.50688976 85.03616448 52.62695312 85.03173828 C54.0956913 85.02399635 54.0956913 85.02399635 55.59410095 85.01609802 C56.94538841 85.01598473 56.94538841 85.01598473 58.32397461 85.01586914 C59.12117416 85.01364853 59.91837372 85.01142792 60.73973083 85.00914001 C62.56835938 85.12939453 62.56835938 85.12939453 63.56835938 86.12939453 C63.66716734 87.60592117 63.69915183 89.08706689 63.70117188 90.56689453 C63.70246094 91.46150391 63.70375 92.35611328 63.70507812 93.27783203 C63.70121094 94.21884766 63.69734375 95.15986328 63.69335938 96.12939453 C63.69722656 97.07041016 63.70109375 98.01142578 63.70507812 98.98095703 C63.70378906 99.87556641 63.7025 100.77017578 63.70117188 101.69189453 C63.70004395 102.51818359 63.69891602 103.34447266 63.69775391 104.19580078 C63.56835938 106.12939453 63.56835938 106.12939453 62.56835938 107.12939453 C60.42635614 107.22891746 58.28103233 107.25739132 56.13671875 107.25878906 C55.1294146 107.26141754 55.1294146 107.26141754 54.10176086 107.26409912 C51.8718511 107.26851683 49.64202001 107.26557995 47.41210938 107.26220703 C45.86893702 107.26288009 44.32576477 107.26385014 42.78259277 107.2651062 C39.54434197 107.26658306 36.3061187 107.264429 33.06787109 107.25976562 C28.90793415 107.25406834 24.74806171 107.2573474 20.58812714 107.26333809 C17.4003653 107.26694402 14.21261886 107.26580497 11.02485657 107.2632103 C9.49058525 107.26254112 7.95631255 107.26336914 6.42204285 107.26568985 C4.28132397 107.26821691 2.14071095 107.26437508 0 107.25878906 C-1.83081116 107.25759567 -1.83081116 107.25759567 -3.6986084 107.25637817 C-6.43164062 107.12939453 -6.43164062 107.12939453 -7.43164062 106.12939453 C-7.52914538 104.76564324 -7.55795662 103.39689544 -7.55862427 102.02966309 C-7.56144409 101.14624741 -7.56426392 100.26283173 -7.56716919 99.35264587 C-7.56514496 98.37598465 -7.56312073 97.39932343 -7.56103516 96.39306641 C-7.56278748 95.37040176 -7.56453979 94.34773712 -7.56634521 93.29408264 C-7.5707659 89.89541961 -7.56782498 86.49680814 -7.56445312 83.09814453 C-7.5651261 80.74784332 -7.56609607 78.39754218 -7.56735229 76.04724121 C-7.56882956 71.11416971 -7.56667379 66.18111628 -7.56201172 61.24804688 C-7.55631442 54.90888786 -7.55959327 48.56977117 -7.56558418 42.23061371 C-7.56918902 37.37522052 -7.56805157 32.51983745 -7.56545639 27.66444397 C-7.56478691 25.32633967 -7.56561629 22.98823447 -7.56793594 20.65013123 C-7.5704612 17.38863676 -7.56662367 14.1272119 -7.56103516 10.86572266 C-7.5640715 9.40073082 -7.5640715 9.40073082 -7.56716919 7.90614319 C-7.56434937 7.02272751 -7.56152954 6.13931183 -7.55862427 5.22912598 C-7.55824724 4.45704048 -7.55787022 3.68495499 -7.55748177 2.88947296 C-7.25916422 -1.28294845 -3.34103089 0.00217781 0 0 Z " fill="#012334" transform="translate(316.431640625,790.87060546875)"/>
<path d="M0 0 C3.89543877 -0.14553599 7.79017651 -0.23415059 11.6875 -0.3125 C13.34168945 -0.3753418 13.34168945 -0.3753418 15.02929688 -0.43945312 C23.1232014 -0.56171754 23.1232014 -0.56171754 26.90234375 1.859375 C29.85826014 6.28499283 32.40710146 10.84990607 34.875 15.5625 C35.9282362 17.53853465 36.98291487 19.51380116 38.0390625 21.48828125 C38.54469727 22.43654785 39.05033203 23.38481445 39.57128906 24.36181641 C41.88579123 28.6356562 44.36893802 32.7983455 46.890625 36.953125 C48 39 48 39 48 41 C50.77058766 38.53039396 52.36192727 35.82959368 54.14453125 32.58984375 C54.73943359 31.51669922 55.33433594 30.44355469 55.94726562 29.33789062 C56.56279297 28.21576172 57.17832031 27.09363281 57.8125 25.9375 C70.81003858 2.3699247 70.81003858 2.3699247 74 0 C76.54370117 -0.34057617 76.54370117 -0.34057617 79.54296875 -0.29296875 C81.15268555 -0.2784668 81.15268555 -0.2784668 82.79492188 -0.26367188 C83.91447266 -0.23853516 85.03402344 -0.21339844 86.1875 -0.1875 C87.31865234 -0.17396484 88.44980469 -0.16042969 89.61523438 -0.14648438 C92.41063317 -0.11109958 95.20507892 -0.06172948 98 0 C98.87367448 2.9315836 99.20342818 4.4913511 98.05053711 7.37402344 C97.5478833 8.19418945 97.04522949 9.01435547 96.52734375 9.859375 C95.68260498 11.2673938 95.68260498 11.2673938 94.82080078 12.70385742 C94.19931152 13.70908447 93.57782227 14.71431152 92.9375 15.75 C91.6397007 17.90621361 90.34419881 20.06381137 89.05078125 22.22265625 C88.37998535 23.33656738 87.70918945 24.45047852 87.01806641 25.59814453 C83.19300363 32.04605461 79.59216525 38.6199242 75.97241211 45.18457031 C75.43753174 46.1484668 74.90265137 47.11236328 74.3515625 48.10546875 C73.82087158 49.07887207 73.29018066 50.05227539 72.7434082 51.05517578 C71 54 71 54 68.84057617 56.86279297 C61.44257822 67.02342296 61.90049852 76.57822029 62.0625 88.75 C62.06322097 91.64829276 62.05303741 94.54637811 62.04063416 97.44464111 C62.03703745 99.23529924 62.04336132 101.02601024 62.06056213 102.81658936 C62.07572437 104.87776933 62.04292196 106.9392112 62 109 C60.28432208 110.71567792 58.02627265 110.13015825 55.6875 110.1328125 C54.61242187 110.13410156 53.53734375 110.13539063 52.4296875 110.13671875 C51.29789063 110.13285156 50.16609375 110.12898437 49 110.125 C47.86820313 110.12886719 46.73640625 110.13273438 45.5703125 110.13671875 C44.49523437 110.13542969 43.42015625 110.13414062 42.3125 110.1328125 C41.31863281 110.13168457 40.32476563 110.13055664 39.30078125 110.12939453 C37 110 37 110 36 109 C36.01324158 106.26417521 36.08213524 103.54583854 36.17578125 100.8125 C36.64015987 79.16387647 35.82473601 63.93282478 22.93408203 45.81201172 C19.66355006 41.05690098 16.96277363 35.99178158 14.1875 30.9375 C13.12936363 29.05296522 12.06825533 27.17009545 11.00390625 25.2890625 C10.50133301 24.39993164 9.99875977 23.51080078 9.48095703 22.59472656 C8.05748505 20.1007173 6.60998457 17.62259772 5.15234375 15.1484375 C4.72219971 14.40988525 4.29205566 13.67133301 3.84887695 12.91040039 C3.0594551 11.55721826 2.26047166 10.20954755 1.44995117 8.86889648 C-1.09115895 4.48558633 -1.09115895 4.48558633 -0.58837891 1.80737305 C-0.39421387 1.21093994 -0.20004883 0.61450684 0 0 Z " fill="#022435" transform="translate(789,653)"/>
<path d="M0 0 C1.17044357 0.00303635 1.17044357 0.00303635 2.36453247 0.00613403 C3.59129196 0.00350555 3.59129196 0.00350555 4.84283447 0.00082397 C7.55972383 -0.00359528 10.27654865 -0.0006563 12.99343872 0.00271606 C14.87291476 0.00204305 16.75239071 0.00107304 18.63186646 -0.00018311 C22.57629218 -0.00166018 26.5206953 0.00049478 30.46511841 0.00515747 C35.53306375 0.01085476 40.60095614 0.00757581 45.66889954 0.00158501 C49.55150759 -0.00202035 53.434103 -0.00088214 57.31671143 0.0017128 C59.18591315 0.00238214 61.055116 0.00155341 62.92431641 -0.00076675 C65.53202376 -0.00329287 68.13964413 0.00054672 70.74734497 0.00613403 C71.52764069 0.0041098 72.3079364 0.00208557 73.11187744 0 C78.44167619 0.02126603 78.44167619 0.02126603 79.55593872 1.13552856 C79.65474669 2.6120552 79.68673118 4.09320092 79.68875122 5.57302856 C79.69004028 6.46763794 79.69132935 7.36224731 79.69265747 8.28396606 C79.68879028 9.22498169 79.6849231 10.16599731 79.68093872 11.13552856 C79.68480591 12.07654419 79.6886731 13.01755981 79.69265747 13.98709106 C79.69136841 14.88170044 79.69007935 15.77630981 79.68875122 16.69802856 C79.68762329 17.52431763 79.68649536 18.35060669 79.68533325 19.20193481 C79.55593872 21.13552856 79.55593872 21.13552856 78.55593872 22.13552856 C76.41035045 22.22328462 74.26189451 22.24248075 72.11453247 22.23318481 C70.80935669 22.22996216 69.50418091 22.2267395 68.15945435 22.22341919 C66.77078182 22.21506258 65.38210995 22.20659761 63.99343872 22.19802856 C62.60086216 22.19301522 61.20828391 22.18845203 59.81570435 22.18435669 C56.39574002 22.1725229 52.97586028 22.15603737 49.55593872 22.13552856 C49.55815933 23.18566635 49.56037994 24.23580414 49.56266785 25.31776428 C49.58289887 35.19198437 49.59791067 45.06620029 49.60775089 54.94043636 C49.61297982 60.01743874 49.62007764 65.09442445 49.63137817 70.17141724 C49.64220671 75.06673408 49.64821548 79.96203485 49.65081596 84.85736275 C49.65267028 86.72935807 49.656291 88.60135247 49.66166878 90.47334099 C49.66887877 93.08593556 49.66992968 95.69846283 49.66946411 98.31106567 C49.67305939 99.09293243 49.67665466 99.87479919 49.68035889 100.68035889 C49.66999088 106.0214764 49.66999088 106.0214764 48.55593872 107.13552856 C44.75005728 107.38761578 40.93168416 107.320752 37.11843872 107.32302856 C36.04271606 107.33527466 34.96699341 107.34752075 33.8586731 107.36013794 C32.83193481 107.36207153 31.80519653 107.36400513 30.74734497 107.36599731 C29.32724121 107.37216064 29.32724121 107.37216064 27.87844849 107.37844849 C25.55593872 107.13552856 25.55593872 107.13552856 23.55593872 105.13552856 C23.36798262 102.48508752 23.30410011 99.94002043 23.32888794 97.28933716 C23.32859589 96.47949875 23.32830383 95.66966034 23.32800293 94.83528137 C23.32939922 92.1514016 23.34497437 89.4677975 23.36062622 86.78396606 C23.36435529 84.92594555 23.36720276 83.06792308 23.36920166 81.2098999 C23.37684648 76.31406243 23.39650223 71.41834318 23.41860962 66.52255249 C23.43904979 61.52897745 23.44819946 56.53538336 23.45828247 51.54177856 C23.47974734 41.73964322 23.5138935 31.93759571 23.55593872 22.13552856 C22.2460498 22.14338379 22.2460498 22.14338379 20.90969849 22.15139771 C17.680046 22.16840607 14.45041627 22.18096226 11.22073364 22.19046021 C9.82098644 22.19549936 8.42124452 22.20233073 7.02151489 22.21096802 C5.01348095 22.22305176 3.00540915 22.22822663 0.99734497 22.23318481 C-0.21235962 22.23842163 -1.42206421 22.24365845 -2.66842651 22.24905396 C-5.44406128 22.13552856 -5.44406128 22.13552856 -6.44406128 21.13552856 C-6.54286925 19.65900192 -6.57485373 18.17785621 -6.57687378 16.69802856 C-6.57816284 15.80341919 -6.5794519 14.90880981 -6.58078003 13.98709106 C-6.57497925 12.57556763 -6.57497925 12.57556763 -6.56906128 11.13552856 C-6.57292847 10.19451294 -6.57679565 9.25349731 -6.58078003 8.28396606 C-6.57949097 7.38935669 -6.5782019 6.49474731 -6.57687378 5.57302856 C-6.57518188 4.33359497 -6.57518188 4.33359497 -6.57345581 3.06912231 C-6.29939279 -1.02630993 -3.44067645 0.01372838 0 0 Z " fill="#032435" transform="translate(765.4440612792969,790.8644714355469)"/>
<path d="M0 0 C1.02996094 -0.00128906 2.05992187 -0.00257813 3.12109375 -0.00390625 C4.74724609 0.00189453 4.74724609 0.00189453 6.40625 0.0078125 C7.49035156 0.00394531 8.57445312 0.00007812 9.69140625 -0.00390625 C10.72136719 -0.00261719 11.75132812 -0.00132812 12.8125 0 C14.24045898 0.00169189 14.24045898 0.00169189 15.69726562 0.00341797 C17.90625 0.1328125 17.90625 0.1328125 18.90625 1.1328125 C19.00132821 3.71920288 19.03181376 6.2787981 19.01977539 8.86547852 C19.01992142 9.6751709 19.02006744 10.48486328 19.0202179 11.3190918 C19.01951854 14.00832758 19.0117251 16.69749499 19.00390625 19.38671875 C19.00204215 21.24616966 19.00061821 23.10562106 18.99961853 24.96507263 C18.99579271 29.86910346 18.98596188 34.77310486 18.97491455 39.67712402 C18.96470181 44.67732342 18.96012121 49.67752756 18.95507812 54.67773438 C18.94433967 64.49610671 18.92726248 74.31445716 18.90625 84.1328125 C20.20361084 84.12757568 21.50097168 84.12233887 22.83764648 84.11694336 C27.63272415 84.09889781 32.4277988 84.08738213 37.22290039 84.07788086 C39.30168156 84.07283962 41.38045916 84.06600676 43.45922852 84.05737305 C46.44027586 84.04529828 49.42127649 84.03958226 52.40234375 84.03515625 C53.80546059 84.02741432 53.80546059 84.02741432 55.23692322 84.01951599 C56.09774002 84.01944046 56.95855682 84.01936493 57.84545898 84.01928711 C58.60712875 84.0170665 59.36879852 84.01484589 60.15354919 84.01255798 C61.90625 84.1328125 61.90625 84.1328125 62.90625 85.1328125 C63.00524523 86.68236809 63.03704524 88.23634923 63.0390625 89.7890625 C63.04035156 90.72878906 63.04164063 91.66851563 63.04296875 92.63671875 C63.03910156 93.62542969 63.03523438 94.61414063 63.03125 95.6328125 C63.03511719 96.62152344 63.03898437 97.61023438 63.04296875 98.62890625 C63.04167969 99.56863281 63.04039062 100.50835938 63.0390625 101.4765625 C63.03793457 102.34474609 63.03680664 103.21292969 63.03564453 104.10742188 C62.90625 106.1328125 62.90625 106.1328125 61.90625 107.1328125 C59.82549591 107.23225222 57.74133152 107.26080846 55.65820312 107.26220703 C55.00617416 107.26395935 54.3541452 107.26571167 53.68235779 107.26751709 C51.51737847 107.27193454 49.35248021 107.26899801 47.1875 107.265625 C45.68916813 107.26629807 44.19083637 107.26726812 42.69250488 107.26852417 C39.54841067 107.270001 36.40434483 107.26784708 33.26025391 107.26318359 C29.22138461 107.2574863 25.18258176 107.26076539 21.1437149 107.26675606 C18.0485992 107.27036208 14.95349935 107.26922289 11.85838318 107.26662827 C10.36876925 107.26595911 8.8791539 107.26678702 7.38954163 107.26910782 C5.31108765 107.27163503 3.23274269 107.26779283 1.15429688 107.26220703 C-0.6232196 107.26101364 -0.6232196 107.26101364 -2.43664551 107.25979614 C-5.09375 107.1328125 -5.09375 107.1328125 -6.09375 106.1328125 C-6.19125476 104.76906121 -6.22006599 103.40031341 -6.22073364 102.03308105 C-6.22355347 101.14966537 -6.22637329 100.26624969 -6.22927856 99.35606384 C-6.22725433 98.37940262 -6.2252301 97.40274139 -6.22314453 96.39648438 C-6.22489685 95.37381973 -6.22664917 94.35115509 -6.22845459 93.29750061 C-6.23287527 89.89883758 -6.22993435 86.50022611 -6.2265625 83.1015625 C-6.22723548 80.75126129 -6.22820545 78.40096015 -6.22946167 76.05065918 C-6.23093894 71.11758768 -6.22878316 66.18453425 -6.22412109 61.25146484 C-6.2184238 54.91230583 -6.22170265 48.57318914 -6.22769356 42.23403168 C-6.23129839 37.37863849 -6.23016094 32.52325542 -6.22756577 27.66786194 C-6.22689628 25.32975764 -6.22772566 22.99165244 -6.23004532 20.65354919 C-6.23257057 17.39205473 -6.22873304 14.13062987 -6.22314453 10.86914062 C-6.22618088 9.40414879 -6.22618088 9.40414879 -6.22927856 7.90956116 C-6.22645874 7.02614548 -6.22363892 6.1427298 -6.22073364 5.23254395 C-6.22035662 4.46045845 -6.21997959 3.68837296 -6.21959114 2.89289093 C-5.94847321 -0.89910287 -3.16974506 0.00375562 0 0 Z " fill="#012334" transform="translate(406.09375,790.8671875)"/>
<path d="M0 0 C1.084021 0.00523682 2.16804199 0.01047363 3.28491211 0.01586914 C4.45473633 0.0190918 5.62456055 0.02231445 6.82983398 0.02563477 C8.0615332 0.03401367 9.29323242 0.04239258 10.56225586 0.05102539 C12.41560547 0.05779297 12.41560547 0.05779297 14.30639648 0.06469727 C17.37089703 0.07652931 20.43530307 0.09301366 23.49975586 0.11352539 C23.67149094 5.69864899 23.01680519 10.86709713 22.06225586 16.36352539 C19.72840191 29.91997846 19.22998294 43.25756853 19.18725586 56.98852539 C19.18330811 57.90873474 19.17936035 58.82894409 19.17529297 59.77703857 C19.14249833 76.20322907 20.52483806 91.94532188 23.49975586 108.11352539 C16.83704585 107.48889633 10.81092076 105.39111097 4.49975586 103.23852539 C3.44530273 102.88661133 2.39084961 102.53469727 1.30444336 102.17211914 C-4.07904125 100.35738561 -9.29639958 98.38818726 -14.50024414 96.11352539 C-14.99375073 63.90146465 -14.23752587 31.93204295 -3.50024414 1.11352539 C-2.50024414 0.11352539 -2.50024414 0.11352539 0 0 Z " fill="#FAF6ED" transform="translate(430.500244140625,480.886474609375)"/>
<path d="M0 0 C1.07507813 -0.00128906 2.15015625 -0.00257813 3.2578125 -0.00390625 C4.38960938 -0.00003906 5.52140625 0.00382813 6.6875 0.0078125 C7.81929688 0.00394531 8.95109375 0.00007812 10.1171875 -0.00390625 C11.19226563 -0.00261719 12.26734375 -0.00132812 13.375 0 C14.86580078 0.00169189 14.86580078 0.00169189 16.38671875 0.00341797 C18.6875 0.1328125 18.6875 0.1328125 19.6875 1.1328125 C19.78512523 2.5345958 19.81381658 3.94125703 19.81448364 5.34643555 C19.81730347 6.25509369 19.82012329 7.16375183 19.82302856 8.09994507 C19.82100433 9.10465851 19.8189801 10.10937195 19.81689453 11.14453125 C19.81864685 12.1964566 19.82039917 13.24838196 19.82220459 14.33218384 C19.82662543 17.82824324 19.82368429 21.32425253 19.8203125 24.8203125 C19.82098547 27.23787445 19.82195544 29.65543633 19.82321167 32.07299805 C19.82468896 37.14730471 19.82253309 42.22159381 19.81787109 47.29589844 C19.8121738 53.81665953 19.81545263 60.33737946 19.82144356 66.85813904 C19.82504833 71.85250156 19.82391097 76.84685424 19.82131577 81.84121704 C19.82064626 84.24630742 19.82147572 86.65139868 19.82379532 89.05648804 C19.82632048 92.41138085 19.82248317 95.766206 19.81689453 99.12109375 C19.81891876 100.12580719 19.82094299 101.13052063 19.82302856 102.16567993 C19.81879883 103.52866714 19.81879883 103.52866714 19.81448364 104.91918945 C19.81410662 105.71339798 19.81372959 106.50760651 19.81334114 107.32588196 C19.6875 109.1328125 19.6875 109.1328125 18.6875 110.1328125 C16.91890807 110.23227703 15.14638549 110.26361467 13.375 110.265625 C12.29992187 110.26691406 11.22484375 110.26820313 10.1171875 110.26953125 C8.98539062 110.26566406 7.85359375 110.26179687 6.6875 110.2578125 C5.55570312 110.26167969 4.42390625 110.26554688 3.2578125 110.26953125 C2.18273437 110.26824219 1.10765625 110.26695312 0 110.265625 C-0.99386719 110.26449707 -1.98773438 110.26336914 -3.01171875 110.26220703 C-5.3125 110.1328125 -5.3125 110.1328125 -6.3125 109.1328125 C-6.41012523 107.7310292 -6.43881658 106.32436797 -6.43948364 104.91918945 C-6.44230347 104.01053131 -6.44512329 103.10187317 -6.44802856 102.16567993 C-6.44600433 101.16096649 -6.4439801 100.15625305 -6.44189453 99.12109375 C-6.44364685 98.0691684 -6.44539917 97.01724304 -6.44720459 95.93344116 C-6.45162543 92.43738176 -6.44868429 88.94137247 -6.4453125 85.4453125 C-6.44598547 83.02775055 -6.44695544 80.61018867 -6.44821167 78.19262695 C-6.44968896 73.11832029 -6.44753309 68.04403119 -6.44287109 62.96972656 C-6.4371738 56.44896547 -6.44045263 49.92824554 -6.44644356 43.40748596 C-6.45004833 38.41312344 -6.44891097 33.41877076 -6.44631577 28.42440796 C-6.44564626 26.01931758 -6.44647572 23.61422632 -6.44879532 21.20913696 C-6.45132048 17.85424415 -6.44748317 14.499419 -6.44189453 11.14453125 C-6.44391876 10.13981781 -6.44594299 9.13510437 -6.44802856 8.09994507 C-6.44379883 6.73695786 -6.44379883 6.73695786 -6.43948364 5.34643555 C-6.43910662 4.55222702 -6.43872959 3.75801849 -6.43834114 2.93974304 C-6.16654087 -0.96298872 -3.2575074 0.00369691 0 0 Z " fill="#012334" transform="translate(268.3125,652.8671875)"/>
<path d="M0 0 C1.02996094 -0.00128906 2.05992187 -0.00257813 3.12109375 -0.00390625 C4.74724609 0.00189453 4.74724609 0.00189453 6.40625 0.0078125 C7.49035156 0.00394531 8.57445312 0.00007812 9.69140625 -0.00390625 C10.72136719 -0.00261719 11.75132812 -0.00132812 12.8125 0 C14.24045898 0.00169189 14.24045898 0.00169189 15.69726562 0.00341797 C17.90625 0.1328125 17.90625 0.1328125 18.90625 1.1328125 C19.00375476 2.49656379 19.03256599 3.86531159 19.03323364 5.23254395 C19.03605347 6.11595963 19.03887329 6.99937531 19.04177856 7.90956116 C19.03975433 8.88622238 19.0377301 9.86288361 19.03564453 10.86914062 C19.03739685 11.89180527 19.03914917 12.91446991 19.04095459 13.96812439 C19.04537527 17.36678742 19.04243435 20.76539889 19.0390625 24.1640625 C19.03973548 26.51436371 19.04070545 28.86466485 19.04196167 31.21496582 C19.04343894 36.14803732 19.04128316 41.08109075 19.03662109 46.01416016 C19.0309238 52.35331917 19.03420265 58.69243586 19.04019356 65.03159332 C19.04379839 69.88698651 19.04266094 74.74236958 19.04006577 79.59776306 C19.03939628 81.93586736 19.04022566 84.27397256 19.04254532 86.61207581 C19.04507057 89.87357027 19.04123304 93.13499513 19.03564453 96.39648438 C19.03766876 97.3731456 19.03969299 98.34980682 19.04177856 99.35606384 C19.03754883 100.68118736 19.03754883 100.68118736 19.03323364 102.03308105 C19.03285662 102.80516655 19.03247959 103.57725204 19.03209114 104.37273407 C18.90625 106.1328125 18.90625 106.1328125 17.90625 107.1328125 C16.21066274 107.23213403 14.51099253 107.26361257 12.8125 107.265625 C11.78253906 107.26691406 10.75257813 107.26820313 9.69140625 107.26953125 C8.06525391 107.26373047 8.06525391 107.26373047 6.40625 107.2578125 C5.32214844 107.26167969 4.23804688 107.26554688 3.12109375 107.26953125 C2.09113281 107.26824219 1.06117188 107.26695312 0 107.265625 C-0.95197266 107.26449707 -1.90394531 107.26336914 -2.88476562 107.26220703 C-5.09375 107.1328125 -5.09375 107.1328125 -6.09375 106.1328125 C-6.19125476 104.76906121 -6.22006599 103.40031341 -6.22073364 102.03308105 C-6.22355347 101.14966537 -6.22637329 100.26624969 -6.22927856 99.35606384 C-6.22725433 98.37940262 -6.2252301 97.40274139 -6.22314453 96.39648438 C-6.22489685 95.37381973 -6.22664917 94.35115509 -6.22845459 93.29750061 C-6.23287527 89.89883758 -6.22993435 86.50022611 -6.2265625 83.1015625 C-6.22723548 80.75126129 -6.22820545 78.40096015 -6.22946167 76.05065918 C-6.23093894 71.11758768 -6.22878316 66.18453425 -6.22412109 61.25146484 C-6.2184238 54.91230583 -6.22170265 48.57318914 -6.22769356 42.23403168 C-6.23129839 37.37863849 -6.23016094 32.52325542 -6.22756577 27.66786194 C-6.22689628 25.32975764 -6.22772566 22.99165244 -6.23004532 20.65354919 C-6.23257057 17.39205473 -6.22873304 14.13062987 -6.22314453 10.86914062 C-6.22618088 9.40414879 -6.22618088 9.40414879 -6.22927856 7.90956116 C-6.22645874 7.02614548 -6.22363892 6.1427298 -6.22073364 5.23254395 C-6.22035662 4.46045845 -6.21997959 3.68837296 -6.21959114 2.89289093 C-5.94847321 -0.89910287 -3.16974506 0.00375562 0 0 Z " fill="#002333" transform="translate(492.09375,790.8671875)"/>
<path d="M0 0 C28.76849724 0 28.76849724 0 38.05078125 8.8125 C45.74784939 17.4504923 45.62262135 27.98882612 45 39 C43.73045757 46.43435442 39.90953126 52.62202782 34.21875 57.5390625 C24.07227957 64.64990858 11.94234853 63 0 63 C0 42.21 0 21.42 0 0 Z " fill="#FAF6ED" transform="translate(221,813)"/>
<path d="M0 0 C-1.48552942 3.17122687 -3.27392763 5.95977205 -5.2734375 8.83203125 C-17.03941271 25.95302435 -27.53712504 43.54321886 -35 63 C-46.385 62.505 -46.385 62.505 -58 62 C-58.33 61.34 -58.66 60.68 -59 60 C-58.35424805 58.11499023 -58.35424805 58.11499023 -57.26171875 55.80859375 C-56.85888672 54.95467041 -56.45605469 54.10074707 -56.04101562 53.22094727 C-55.59435547 52.30240967 -55.14769531 51.38387207 -54.6875 50.4375 C-54.23181641 49.49382568 -53.77613281 48.55015137 -53.30664062 47.57788086 C-47.01772836 34.74162269 -39.87782725 22.54843013 -31.28125 11.1171875 C-28.99610875 8.11212343 -28.99610875 8.11212343 -27.34375 5.1328125 C-21.25140353 -4.84495901 -10.07950713 -1.53270856 0 0 Z " fill="#F8F5EC" transform="translate(499,388)"/>
<path d="M0 0 C0 0.99 0 1.98 0 3 C-2.36036363 4.79375516 -4.69828912 6.40377452 -7.1875 8 C-14.96851708 13.16371874 -22.01928583 18.81129298 -29 25 C-29.89460937 25.78375 -30.78921875 26.5675 -31.7109375 27.375 C-32.54882812 28.1175 -33.38671875 28.86 -34.25 29.625 C-35.06082031 30.33527344 -35.87164063 31.04554688 -36.70703125 31.77734375 C-39.07465115 33.95210471 -39.07465115 33.95210471 -40.94921875 36.62890625 C-43.20211035 39.52801038 -44.74215212 41.26189885 -48 43 C-54.38497845 43.54109987 -60.75809315 42.22552189 -67 41 C-65.54423847 35.65886113 -62.03555281 32.82735763 -58.0625 29.25 C-57.38517822 28.63092773 -56.70785645 28.01185547 -56.01000977 27.37402344 C-47.21300506 19.38941801 -38.0548603 11.98286772 -28.265625 5.25 C-26.36799637 3.94254295 -24.49023159 2.60313332 -22.671875 1.1875 C-15.63186182 -3.7566314 -7.94201992 -1.52993513 0 0 Z " fill="#F9F6EE" transform="translate(564,326)"/>
<path d="M0 0 C-5.6930143 2.48445142 -11.41845073 4.80911186 -17.26171875 6.9140625 C-34.20709734 13.03461503 -51.01330327 19.84937526 -66.4453125 29.24609375 C-67.29246826 29.76123535 -68.13962402 30.27637695 -69.01245117 30.80712891 C-70.57065592 31.77439866 -72.11423894 32.76586178 -73.63793945 33.78662109 C-79.27740374 37.33553238 -83.5404923 37.43624567 -90 36 C-93.125 34.9375 -93.125 34.9375 -95 34 C-91.33796047 29.68581645 -86.75492573 27.4387206 -81.8125 24.875 C-80.89122314 24.39708008 -79.96994629 23.91916016 -79.02075195 23.42675781 C-19.14210634 -6.96076594 -19.14210634 -6.96076594 0 0 Z " fill="#F5F3ED" transform="translate(662,280)"/>
<path d="M0 0 C0.66 0 1.32 0 2 0 C3.71280242 5.0890579 5.42169983 10.17940363 7.12695312 15.27099609 C7.70790528 17.00378013 8.28993274 18.73620403 8.87304688 20.46826172 C9.70984713 22.95446929 10.54280229 25.44193615 11.375 27.9296875 C11.63748535 28.70682098 11.8999707 29.48395447 12.17041016 30.28463745 C14 35.77225659 14 35.77225659 14 38 C5.42 38 -3.16 38 -12 38 C-10.72641501 32.26886755 -9.52384353 27.22842444 -7.6171875 21.77734375 C-7.28849167 20.83091759 -7.28849167 20.83091759 -6.95315552 19.8653717 C-6.26512987 17.88773948 -5.57022038 15.91261288 -4.875 13.9375 C-4.4018818 12.5815413 -3.92922194 11.22542259 -3.45703125 9.86914062 C-2.30996322 6.57756639 -1.15671656 3.28819785 0 0 Z " fill="#F8F5ED" transform="translate(744,684)"/>
<path d="M0 0 C10.90038664 -0.06944326 21.80072085 -0.12278238 32.70128345 -0.15543652 C37.76260491 -0.17110713 42.82377528 -0.19237087 47.88500977 -0.22631836 C52.76738156 -0.25886203 57.64960783 -0.27684249 62.5320797 -0.28463173 C64.39686055 -0.29018422 66.26163324 -0.30102662 68.12635231 -0.31719017 C70.73390682 -0.33889822 73.34085632 -0.34196973 75.94848633 -0.34057617 C76.72316254 -0.351362 77.49783875 -0.36214783 78.29598999 -0.3732605 C83.51365692 -0.34299291 83.51365692 -0.34299291 85.97796631 1.3949585 C88.0766577 4.69082517 87.46859072 8.65291128 87.4375 12.4375 C87.45748047 13.29666016 87.47746094 14.15582031 87.49804688 15.04101562 C87.49708008 16.2872168 87.49708008 16.2872168 87.49609375 17.55859375 C87.49794678 18.31454834 87.4997998 19.07050293 87.50170898 19.84936523 C86.78483927 22.92231184 85.44176998 24.0349616 83 26 C80.15917969 26.45410156 80.15917969 26.45410156 76.921875 26.390625 C75.76171875 26.37773438 74.6015625 26.36484375 73.40625 26.3515625 C72.1996875 26.31804688 70.993125 26.28453125 69.75 26.25 C67.91695312 26.22292969 67.91695312 26.22292969 66.046875 26.1953125 C63.03045922 26.148181 60.01562509 26.08239413 57 26 C57.00444122 27.00811234 57.00888245 28.01622467 57.01345825 29.05488586 C57.05396545 38.54585054 57.08396569 48.03679773 57.10362434 57.52782917 C57.11407073 62.40750539 57.12824552 67.28711193 57.15087891 72.16674805 C57.17257681 76.87404759 57.18456219 81.58128003 57.18975449 86.28862572 C57.19345574 88.08640792 57.20068316 89.88418637 57.21146011 91.68194008 C57.2259345 94.19600038 57.22797965 96.70978183 57.22705078 99.22387695 C57.23424133 99.97050095 57.24143188 100.71712494 57.24884033 101.4863739 C57.23388917 105.21512838 57.12473406 106.8128989 55 110 C50.52530163 111.49156612 46.12413221 111.18437766 41.4375 111.1875 C39.98053711 111.20586914 39.98053711 111.20586914 38.49414062 111.22460938 C37.10291992 111.22750977 37.10291992 111.22750977 35.68359375 111.23046875 C34.40826782 111.23663208 34.40826782 111.23663208 33.10717773 111.24291992 C31 111 31 111 29 109 C41.375 108.505 41.375 108.505 54 108 C54.33 80.28 54.66 52.56 55 24 C69.355 23.505 69.355 23.505 84 23 C84.020625 19.720625 84.04125 16.44125 84.0625 13.0625 C84.071604 12.02746338 84.08070801 10.99242676 84.09008789 9.92602539 C84.09258545 9.11641357 84.09508301 8.30680176 84.09765625 7.47265625 C84.10551147 6.22367554 84.10551147 6.22367554 84.11352539 4.94946289 C84.21643292 2.99483202 84.21643292 2.99483202 83 2 C80.41450228 1.87494915 77.85438589 1.813952 75.26733398 1.79467773 C74.4576416 1.78477814 73.64794922 1.77487854 72.8137207 1.76467896 C70.12454195 1.73297013 67.4353455 1.70826965 64.74609375 1.68359375 C62.88663766 1.66303231 61.02718632 1.64203606 59.16773987 1.62062073 C54.26376185 1.56531634 49.35974107 1.5159441 44.45568848 1.46777344 C39.45544612 1.41761934 34.45526618 1.36190155 29.45507812 1.30664062 C19.63677201 1.19895679 9.81841181 1.09753468 0 1 C0 0.67 0 0.34 0 0 Z " fill="#FDFDFA" transform="translate(760,789)"/>
<path d="M0 0 C0.33 0 0.66 0 1 0 C1 12.54 1 25.08 1 38 C12.88 38 24.76 38 37 38 C37 25.79 37 13.58 37 1 C37.66 0.67 38.32 0.34 39 0 C39 13.53 39 27.06 39 41 C29.3784375 41.0309375 29.3784375 41.0309375 19.5625 41.0625 C17.53552979 41.071604 15.50855957 41.08070801 13.42016602 41.09008789 C11.8230801 41.09300703 10.22599345 41.09555559 8.62890625 41.09765625 C7.79194214 41.10277222 6.95497803 41.10788818 6.09265137 41.11315918 C4.06141735 41.11346924 2.03027529 41.06240188 0 41 C-1 40 -1 40 -1.02172852 36.21459961 C-0.97937639 34.52704091 -0.93135063 32.83961897 -0.87890625 31.15234375 C-0.85529526 30.2659169 -0.83168427 29.37949005 -0.80735779 28.46620178 C-0.73052437 25.62314613 -0.64658529 22.78034954 -0.5625 19.9375 C-0.50929899 18.01498681 -0.45655848 16.09246083 -0.40429688 14.16992188 C-0.27488275 9.44644922 -0.13909382 4.72319712 0 0 Z " fill="#EFEFE8" transform="translate(681,792)"/>
<path d="M0 0 C5.82071622 -0.02464638 11.64140234 -0.0428343 17.4621582 -0.05493164 C19.44393441 -0.05997267 21.42570689 -0.06680538 23.4074707 -0.07543945 C26.24952109 -0.08751515 29.09152247 -0.09323045 31.93359375 -0.09765625 C32.82525742 -0.10281754 33.71692108 -0.10797882 34.63560486 -0.11329651 C36.75740601 -0.11349177 38.8791078 -0.0621003 41 0 C42 1 42 1 42.11352539 4.96899414 C42.1133662 6.74105607 42.10766785 8.5131226 42.09765625 10.28515625 C42.0962413 11.21597519 42.09482635 12.14679413 42.09336853 13.1058197 C42.08775172 16.09141191 42.0751964 19.07693029 42.0625 22.0625 C42.05748716 24.08137913 42.05292388 26.10025943 42.04882812 28.11914062 C42.03862587 33.07947871 42.01905382 38.0396563 42 43 C54.375 42.505 54.375 42.505 67 42 C67.33 39.69 67.66 37.38 68 35 C68.33 35 68.66 35 69 35 C69.1953125 41.0546875 69.1953125 41.0546875 69 43 C66.35893402 45.64106598 65.12217546 45.25746688 61.44140625 45.265625 C60.33345703 45.26820313 59.22550781 45.27078125 58.08398438 45.2734375 C56.92189453 45.26570312 55.75980469 45.25796875 54.5625 45.25 C53.40427734 45.25773438 52.24605469 45.26546875 51.05273438 45.2734375 C49.94349609 45.27085937 48.83425781 45.26828125 47.69140625 45.265625 C46.16302124 45.26224121 46.16302124 45.26224121 44.60375977 45.25878906 C42 45 42 45 39 43 C38.63923645 41.16500854 38.63923645 41.16500854 38.65942383 38.91748047 C38.65976372 37.65639969 38.65976372 37.65639969 38.66011047 36.36984253 C38.67559433 35.46146637 38.69107819 34.55309021 38.70703125 33.6171875 C38.71127609 32.68778351 38.71552094 31.75837952 38.71989441 30.80081177 C38.73671988 27.82524944 38.77437897 24.85035844 38.8125 21.875 C38.82754184 19.86068685 38.84123112 17.84636311 38.85351562 15.83203125 C38.88408742 10.88755261 38.94280107 5.94452984 39 1 C26.13 1 13.26 1 0 1 C0 0.67 0 0.34 0 0 Z " fill="#D3D6D4" transform="translate(459,720)"/>
<path d="M0 0 C0.33 0 0.66 0 1 0 C1.33 25.08 1.66 50.16 2 76 C10.25 76.33 18.5 76.66 27 77 C26.67 77.99 26.34 78.98 26 80 C22.22923111 80.05799124 18.45857666 80.09359306 14.6875 80.125 C13.61564453 80.14175781 12.54378906 80.15851563 11.43945312 80.17578125 C10.41142578 80.18222656 9.38339844 80.18867187 8.32421875 80.1953125 C7.37635498 80.20578613 6.42849121 80.21625977 5.4519043 80.22705078 C3 80 3 80 0 78 C-1.14337816 74.56986551 -1.12703849 71.9311873 -1.12939453 68.31298828 C-1.13114685 67.63783173 -1.13289917 66.96267517 -1.13470459 66.26705933 C-1.13910619 64.03478424 -1.1361904 61.8025884 -1.1328125 59.5703125 C-1.13348618 58.0171609 -1.13445675 56.4640094 -1.13571167 54.91085815 C-1.13718648 51.65426633 -1.13504161 48.39770192 -1.13037109 45.14111328 C-1.12468342 40.97266001 -1.12794807 36.80427127 -1.13394356 32.63582039 C-1.1375631 29.42731239 -1.13640401 26.21881959 -1.13381577 23.01031113 C-1.13314986 21.47376371 -1.13396314 19.93721489 -1.13629532 18.4006691 C-1.13884365 16.24900935 -1.13495015 14.09745287 -1.12939453 11.94580078 C-1.12859894 10.72240997 -1.12780334 9.49901917 -1.12698364 8.23855591 C-1.01424458 5.36328986 -0.66490344 2.79239645 0 0 Z " fill="#F2F2EF" transform="translate(432,686)"/>
<path d="M0 0 C1.00023193 0.00523682 2.00046387 0.01047363 3.03100586 0.01586914 C4.1105957 0.0190918 5.19018555 0.02231445 6.30249023 0.02563477 C8.00695312 0.03820312 8.00695312 0.03820312 9.74584961 0.05102539 C11.45611328 0.05779297 11.45611328 0.05779297 13.20092773 0.06469727 C16.02845312 0.07652792 18.85587601 0.09301129 21.68334961 0.11352539 C21.68334961 0.77352539 21.68334961 1.43352539 21.68334961 2.11352539 C14.09334961 2.11352539 6.50334961 2.11352539 -1.31665039 2.11352539 C-1.31665039 36.76352539 -1.31665039 71.41352539 -1.31665039 107.11352539 C-1.64665039 107.11352539 -1.97665039 107.11352539 -2.31665039 107.11352539 C-2.47042126 93.3101743 -2.61839093 79.50677158 -2.75961399 65.70328617 C-2.825353 59.29450878 -2.89297872 52.88576264 -2.96484375 46.47705078 C-3.03406554 40.29797235 -3.09842615 34.11886103 -3.15934563 27.93969536 C-3.18351255 25.57645246 -3.20946273 23.21322714 -3.23718452 20.85002327 C-3.27556799 17.55255002 -3.30773999 14.25507251 -3.33837891 10.95751953 C-3.35132492 9.96993652 -3.36427094 8.98235352 -3.37760925 7.96484375 C-3.38464874 7.07156876 -3.39168823 6.17829376 -3.39894104 5.25794983 C-3.40723718 4.47719117 -3.41553331 3.69643251 -3.42408085 2.8920145 C-3.25739011 0.13248364 -2.75282618 0.1348998 0 0 Z " fill="#041C2F" transform="translate(436.316650390625,652.886474609375)"/>
<path d="M0 0 C2 2 2 2 2.23046875 5.58984375 C2.22647623 7.03912778 2.21171518 8.48841279 2.1875 9.9375 C2.18685547 10.66646484 2.18621094 11.39542969 2.18554688 12.14648438 C2.15912584 15.34930071 2.01906863 17.9427941 1 21 C-3.63104563 21.91045727 -8.10177427 22.13279048 -12.8046875 22.09765625 C-13.5286673 22.0962413 -14.25264709 22.09482635 -14.99856567 22.09336853 C-17.29075407 22.08781075 -19.58284157 22.07526633 -21.875 22.0625 C-23.43749858 22.05747953 -24.99999871 22.05291759 -26.5625 22.04882812 C-30.37503835 22.03785519 -34.18750212 22.0206201 -38 22 C-38 26.29 -38 30.58 -38 35 C-38.99 35.495 -38.99 35.495 -40 36 C-40 30.72 -40 25.44 -40 20 C-27.13 19.67 -14.26 19.34 -1 19 C-0.67 12.73 -0.34 6.46 0 0 Z " fill="#FDFDF8" transform="translate(374,835)"/>
<path d="M0 0 C0.78073883 -0.00499512 1.56147766 -0.00999023 2.36587524 -0.01513672 C4.58915256 -0.02685005 6.81187371 -0.02398392 9.03515625 -0.015625 C10.31914307 -0.01336914 11.60312988 -0.01111328 12.92602539 -0.00878906 C15.9375 0.25 15.9375 0.25 17.9375 2.25 C3.0875 2.25 -11.7625 2.25 -27.0625 2.25 C-27.0625 2.91 -27.0625 3.57 -27.0625 4.25 C-34.03921158 5.65697017 -40.03466188 6.60150733 -47.0625 5.25 C-46.7325 4.26 -46.4025 3.27 -46.0625 2.25 C-30.69261452 0.78267058 -15.43340866 0.0350628 0 0 Z " fill="#172138" transform="translate(699.0625,257.75)"/>
<path d="M0 0 C-6.78717462 2.90511641 -13.62007906 5.69719591 -20.5 8.375 C-21.18191406 8.64973145 -21.86382813 8.92446289 -22.56640625 9.20751953 C-28.54296199 11.49922567 -28.54296199 11.49922567 -32 10 C-32 8.35 -32 6.7 -32 5 C-5.74130501 -1.8645827 -5.74130501 -1.8645827 0 0 Z " fill="#F4F3EE" transform="translate(662,280)"/>
<path d="M0 0 C0.33 0 0.66 0 1 0 C1.06939109 13.65572572 1.12275579 27.31140976 1.15543652 40.96727562 C1.17111852 47.307674 1.19240305 53.64795211 1.22631836 59.98828125 C1.25882136 66.10257785 1.27683389 72.21675849 1.28463173 78.3311348 C1.29019155 80.66843111 1.3010479 83.0057208 1.31719017 85.34296799 C1.33884385 88.60687929 1.34197197 91.87030623 1.34057617 95.13427734 C1.351362 96.10891434 1.36214783 97.08355133 1.3732605 98.08772278 C1.36913651 98.97395828 1.36501251 99.86019379 1.36076355 100.77328491 C1.36352893 101.54574743 1.36629431 102.31820995 1.36914349 103.11408043 C1.24732614 103.73643389 1.12550879 104.35878735 1 105 C-0.485 105.99 -0.485 105.99 -2 107 C-2 106.01 -2 105.02 -2 104 C-1.34 104 -0.68 104 0 104 C0 69.68 0 35.36 0 0 Z " fill="#F3EEE3" transform="translate(747,792)"/>
<path d="M0 0 C2 2 2 2 2.3125 4.9375 C2 8 2 8 0.82250977 9.66650391 C-1.67639478 11.49490533 -3.39449457 11.38777676 -6.47265625 11.3984375 C-7.53677734 11.40230469 -8.60089844 11.40617188 -9.69726562 11.41015625 C-11.36305664 11.39275391 -11.36305664 11.39275391 -13.0625 11.375 C-14.7340918 11.39240234 -14.7340918 11.39240234 -16.43945312 11.41015625 C-17.50228516 11.40628906 -18.56511719 11.40242187 -19.66015625 11.3984375 C-20.63605713 11.39505371 -21.61195801 11.39166992 -22.61743164 11.38818359 C-23.4036792 11.26008301 -24.18992676 11.13198242 -25 11 C-25.66 10.01 -26.32 9.02 -27 8 C-18.09 7.67 -9.18 7.34 0 7 C0 4.69 0 2.38 0 0 Z " fill="#EEEEE9" transform="translate(799,755)"/>
<path d="M0 0 C-12.48519362 5.37129841 -12.48519362 5.37129841 -19 7 C-19.66 5.35 -20.32 3.7 -21 2 C-18.25162151 1.46892686 -15.50187625 0.94984119 -12.75 0.4375 C-11.97269531 0.28603516 -11.19539062 0.13457031 -10.39453125 -0.02148438 C-9.64042969 -0.16005859 -8.88632812 -0.29863281 -8.109375 -0.44140625 C-7.07248535 -0.63778687 -7.07248535 -0.63778687 -6.01464844 -0.83813477 C-3.78712058 -1.01710362 -2.12493038 -0.65206197 0 0 Z " fill="#E5E8E7" transform="translate(662,280)"/>
<path d="M0 0 C2.42204038 3.63306058 2.23302891 5.31819023 2.1953125 9.63671875 C2.18886719 10.93544922 2.18242188 12.23417969 2.17578125 13.57226562 C2.1590706 14.94401307 2.14214071 16.31575786 2.125 17.6875 C2.11496674 19.07095718 2.10584149 20.45442127 2.09765625 21.83789062 C2.07404967 25.22543452 2.04112037 28.61263072 2 32 C1.01 31.34 0.02 30.68 -1 30 C-1.35644531 27.34204102 -1.35644531 27.34204102 -1.328125 24.00390625 C-1.32296875 22.80572266 -1.3178125 21.60753906 -1.3125 20.37304688 C-1.291875 19.11556641 -1.27125 17.85808594 -1.25 16.5625 C-1.24484375 15.30888672 -1.2396875 14.05527344 -1.234375 12.76367188 C-1.1544143 3.4632429 -1.1544143 3.4632429 0 0 Z " fill="#CACFCB" transform="translate(764,349)"/>
<path d="M0 0 C0.66 0.33 1.32 0.66 2 1 C-7.67052576 6.66352551 -16.44912949 10.72686736 -28 10 C-29.88671875 8.5078125 -29.88671875 8.5078125 -31 7 C-29.88882812 6.97421875 -28.77765625 6.9484375 -27.6328125 6.921875 C-18.02899149 6.59465609 -10.38566694 5.56056383 -1.86328125 0.80859375 C-1.24839844 0.54175781 -0.63351562 0.27492188 0 0 Z " fill="#0F1D28" transform="translate(392,755)"/>
<path d="M0 0 C7.59 0 15.18 0 23 0 C24 3 24 3 23.0625 5.1875 C22.711875 5.785625 22.36125 6.38375 22 7 C21.67 5.68 21.34 4.36 21 3 C13.74 3 6.48 3 -1 3 C-0.67 2.01 -0.34 1.02 0 0 Z " fill="#D6D9D4" transform="translate(587,856)"/>
<path d="M0 0 C12.87 0 25.74 0 39 0 C39 0.33 39 0.66 39 1 C38.28344238 1.02505615 37.56688477 1.0501123 36.82861328 1.07592773 C33.59388486 1.19169751 30.35946159 1.31450969 27.125 1.4375 C25.99707031 1.47681641 24.86914062 1.51613281 23.70703125 1.55664062 C22.63066406 1.59853516 21.55429687 1.64042969 20.4453125 1.68359375 C18.95281982 1.73858032 18.95281982 1.73858032 17.43017578 1.79467773 C14.99220499 1.84959532 14.99220499 1.84959532 13 3 C11.17065435 3.14679934 9.33499757 3.22102635 7.5 3.25 C6.03046875 3.28867187 6.03046875 3.28867187 4.53125 3.328125 C3.6959375 3.21984375 2.860625 3.1115625 2 3 C1.34 2.01 0.68 1.02 0 0 Z " fill="#0D3444" transform="translate(492,615)"/>
<path d="M0 0 C2.33333333 0.33333333 4.66666667 0.66666667 7 1 C8.8253125 1.185625 8.8253125 1.185625 10.6875 1.375 C14.02396224 2.00452118 15.62000566 2.62000566 18 5 C18 5.66 18 6.32 18 7 C19.2684375 7.37125 19.2684375 7.37125 20.5625 7.75 C24.38427474 9.13973627 27.51868063 10.91120838 31 13 C30.01 13.495 30.01 13.495 29 14 C26.75683594 13.13549805 26.75683594 13.13549805 23.984375 11.76171875 C22.98019531 11.27123047 21.97601562 10.78074219 20.94140625 10.27539062 C19.88824219 9.75138672 18.83507812 9.22738281 17.75 8.6875 C15.68391044 7.66728807 13.61624477 6.65026065 11.546875 5.63671875 C10.62745117 5.17998779 9.70802734 4.72325684 8.76074219 4.25268555 C5.89026446 2.95020755 3.00489915 1.94587413 0 1 C0 0.67 0 0.34 0 0 Z " fill="#101A37" transform="translate(598,155)"/>
<path d="M0 0 C0.66 0.33 1.32 0.66 2 1 C1.98839844 2.07121094 1.97679687 3.14242187 1.96484375 4.24609375 C1.95546701 5.64322743 1.94636669 7.04036299 1.9375 8.4375 C1.92912109 9.14455078 1.92074219 9.85160156 1.91210938 10.58007812 C1.90346412 12.38693559 1.94779989 14.19387603 2 16 C2.33 16.33 2.66 16.66 3 17 C3.04063832 18.66617115 3.042721 20.33388095 3 22 C2.34 22 1.68 22 1 22 C-0.98912067 15.53535781 -3.16063529 6.32127057 0 0 Z " fill="#E6EAE7" transform="translate(332,700)"/>
<path d="M0 0 C0.99 0.66 1.98 1.32 3 2 C2.01 3.485 2.01 3.485 1 5 C1.33 5.66 1.66 6.32 2 7 C1.278125 7.4125 0.55625 7.825 -0.1875 8.25 C-2.97969862 9.98736803 -5.47012585 11.90381857 -8 14 C-8.66 13.67 -9.32 13.34 -10 13 C-5.05 6.565 -5.05 6.565 0 0 Z " fill="#0A1F2C" transform="translate(701,501)"/>
<path d="M0 0 C-7.45599017 3.83266881 -13.70531314 4.26998981 -22 4 C-19.24931571 1.69437025 -17.39553965 0.60619177 -13.8125 0.3125 C-13.03648437 0.24804688 -12.26046875 0.18359375 -11.4609375 0.1171875 C-7.6332947 -0.0650812 -3.83158059 -0.06081874 0 0 Z " fill="#EEEEE9" transform="translate(547,616)"/>
<path d="M0 0 C0.99 0.33 1.98 0.66 3 1 C3.94921875 4.16015625 3.94921875 4.16015625 4.6875 8.0625 C4.93886719 9.35285156 5.19023438 10.64320313 5.44921875 11.97265625 C5.63097656 12.97167969 5.81273437 13.97070312 6 15 C5.01 15.33 4.02 15.66 3 16 C2.49193553 14.27318563 1.99389533 12.54342021 1.5 10.8125 C1.08234375 9.36810547 1.08234375 9.36810547 0.65625 7.89453125 C0.03322392 5.14654124 -0.12302812 2.80401584 0 0 Z " fill="#122835" transform="translate(578,710)"/>
<path d="M0 0 C0.33 0 0.66 0 1 0 C0.22095672 13.6332574 0.22095672 13.6332574 -2 20 C-2.99 19.34 -3.98 18.68 -5 18 C-1.92482916 5.33029613 -1.92482916 5.33029613 0 0 Z " fill="#E99D3B" transform="translate(294,290)"/>
<path d="M0 0 C1.04449911 3.13349732 0.93423645 3.98968256 0 7 C-0.66 7 -1.32 7 -2 7 C-1.938125 8.2375 -1.87625 9.475 -1.8125 10.75 C-1.79637174 13.78211302 -1.89348977 14.82248296 -3.5 17.5 C-3.995 17.995 -4.49 18.49 -5 19 C-5.58829594 12.38167071 -3.60608013 7.04945508 -1 1 C-0.67 0.67 -0.34 0.34 0 0 Z " fill="#091823" transform="translate(535,818)"/>
<path d="M0 0 C3.40896916 2.77767858 4.94589119 6.60223405 6.75 10.5 C7.07871094 11.17675781 7.40742187 11.85351562 7.74609375 12.55078125 C10.12211361 17.63365917 10.12211361 17.63365917 9 21 C6 15.25 6 15.25 6 13 C5.34 13 4.68 13 4 13 C3.51891725 11.58398286 3.04021859 10.16715563 2.5625 8.75 C2.29566406 7.96109375 2.02882813 7.1721875 1.75390625 6.359375 C1.08045292 4.25178012 0.50849405 2.15246027 0 0 Z " fill="#121B23" transform="translate(734,252)"/>
<path d="M0 0 C1.32 0.33 2.64 0.66 4 1 C3.34 1 2.68 1 2 1 C1.938125 1.5775 1.87625 2.155 1.8125 2.75 C0.6794098 5.88778826 -1.37717725 7.01689011 -4 9 C-4.99 10.485 -4.99 10.485 -6 12 C-6.66 11.67 -7.32 11.34 -8 11 C-5.36 7.37 -2.72 3.74 0 0 Z " fill="#0A1D29" transform="translate(314,215)"/>
<path d="M0 0 C0.33 0.99 0.66 1.98 1 3 C0.21753906 3.04898438 -0.56492187 3.09796875 -1.37109375 3.1484375 C-2.38300781 3.22320313 -3.39492188 3.29796875 -4.4375 3.375 C-5.44683594 3.44460938 -6.45617187 3.51421875 -7.49609375 3.5859375 C-8.32238281 3.72257813 -9.14867187 3.85921875 -10 4 C-10.33 4.66 -10.66 5.32 -11 6 C-11 4.35 -11 2.7 -11 1 C-7.26562152 0.12132271 -3.83225427 -0.08912219 0 0 Z " fill="#152D3B" transform="translate(359,652)"/>
<path d="M0 0 C-0.41153737 4.97093824 -0.79600832 9.44508386 -3 14 C-3.66 14 -4.32 14 -5 14 C-4.71926927 11.85270859 -4.42511501 9.70716807 -4.125 7.5625 C-3.96257813 6.36753906 -3.80015625 5.17257812 -3.6328125 3.94140625 C-3.42398438 2.97074219 -3.21515625 2.00007813 -3 1 C-1 0 -1 0 0 0 Z " fill="#E8EAE4" transform="translate(762,411)"/>
<path d="M0 0 C0.66 0 1.32 0 2 0 C2 0.99 2 1.98 2 3 C1.34 3 0.68 3 0 3 C0.33 3.99 0.66 4.98 1 6 C0.53980469 6.39832031 0.07960938 6.79664063 -0.39453125 7.20703125 C-2.2674322 9.29866516 -2.87389302 11.01421992 -3.6875 13.6875 C-3.93886719 14.49574219 -4.19023437 15.30398438 -4.44921875 16.13671875 C-4.63097656 16.75160156 -4.81273437 17.36648438 -5 18 C-5.33 18 -5.66 18 -6 18 C-5.61330541 11.03949747 -3.36561591 6.0605925 0 0 Z " fill="#0A151E" transform="translate(313,678)"/>
<path d="M0 0 C-0.57537156 3.88375805 -2.33036271 6.17781201 -5 9 C-7.25 9.8125 -7.25 9.8125 -9 10 C-7.6834994 5.81113445 -4.97532335 0 0 0 Z " fill="#071B27" transform="translate(324,667)"/>
<path d="M0 0 C5.61583419 4.08424305 10.15947441 9.23921161 14 15 C13.01 15 12.02 15 11 15 C8.97553181 12.91986626 7.14303693 10.86416001 5.3125 8.625 C4.80138672 8.02171875 4.29027344 7.4184375 3.76367188 6.796875 C0 2.27443884 0 2.27443884 0 0 Z " fill="#E7EBE9" transform="translate(318,526)"/>
<path d="M0 0 C0.33 0.99 0.66 1.98 1 3 C-0.21807138 4.15762119 -1.45001235 5.3006583 -2.6875 6.4375 C-3.71423828 7.39462891 -3.71423828 7.39462891 -4.76171875 8.37109375 C-7.22289422 10.16221098 -9.00816574 10.62798558 -12 11 C-11.319375 10.484375 -10.63875 9.96875 -9.9375 9.4375 C-6.39657527 6.49928587 -3.20890181 3.29212981 0 0 Z " fill="#EEEFEB" transform="translate(625,882)"/>
<path d="M0 0 C0.99 0.495 0.99 0.495 2 1 C2 1.66 2 2.32 2 3 C4.64 3 7.28 3 10 3 C10 3.66 10 4.32 10 5 C6.53846154 8 6.53846154 8 4 8 C0 2.58823529 0 2.58823529 0 0 Z " fill="#EDEFEB" transform="translate(650,541)"/>
<path d="M0 0 C0.33 0 0.66 0 1 0 C1 5.28 1 10.56 1 16 C-2 13 -2 13 -2.3125 9.125 C-2.19349602 5.73025484 -1.5337071 3.0674142 0 0 Z " fill="#0F3241" transform="translate(264,373)"/>
<path d="M0 0 C0.33 1.32 0.66 2.64 1 4 C-3.455 7.465 -3.455 7.465 -8 11 C-8.66 10.67 -9.32 10.34 -10 10 C-6.7 6.7 -3.4 3.4 0 0 Z " fill="#1D2339" transform="translate(382,384)"/>
<path d="M0 0 C2.5654594 2.5654594 2.54046087 4.47686668 3 8 C2.01 7.67 1.02 7.34 0 7 C-0.33 8.98 -0.66 10.96 -1 13 C-1.66 13 -2.32 13 -3 13 C-2.01 8.71 -1.02 4.42 0 0 Z " fill="#E4EAE9" transform="translate(617,695)"/>
<path d="M0 0 C0.33 0 0.66 0 1 0 C1.36340286 1.76896102 1.71540883 3.54026626 2.0625 5.3125 C2.25972656 6.29863281 2.45695312 7.28476562 2.66015625 8.30078125 C3 11 3 11 2 14 C1.01 14 0.02 14 -1 14 C-0.67 9.38 -0.34 4.76 0 0 Z " fill="#172B35" transform="translate(266,841)"/>
<path d="M0 0 C0.99 0.33 1.98 0.66 3 1 C1.515 6.445 1.515 6.445 0 12 C-0.33 12 -0.66 12 -1 12 C-0.979375 11.0925 -0.95875 10.185 -0.9375 9.25 C-0.86248264 6.13287519 -0.86248264 6.13287519 -1.625 3.75 C-1.74875 3.1725 -1.8725 2.595 -2 2 C-1.34 1.34 -0.68 0.68 0 0 Z " fill="#091E39" transform="translate(292,288)"/>
<path d="M0 0 C0.66 0 1.32 0 2 0 C2.66 2.64 3.32 5.28 4 8 C3.34 8 2.68 8 2 8 C1.67 7.34 1.34 6.68 1 6 C0.34 6.66 -0.32 7.32 -1 8 C-2.2077558 4.37673261 -1.54311128 3.35853631 0 0 Z " fill="#E5EAE9" transform="translate(744,684)"/>
<path d="M0 0 C1.31223496 3.93670488 0.24296256 6.12488144 -1 10 C-1.66 10 -2.32 10 -3 10 C-3.36923077 3.47692308 -3.36923077 3.47692308 -1.5 1.0625 C-1.005 0.711875 -0.51 0.36125 0 0 Z " fill="#091B29" transform="translate(676,724)"/>
<path d="M0 0 C0.66 0.33 1.32 0.66 2 1 C2 1.99 2 2.98 2 4 C2.33 4.66 2.66 5.32 3 6 C1.35 6.33 -0.3 6.66 -2 7 C-2.33 5.35 -2.66 3.7 -3 2 C-2.01 1.34 -1.02 0.68 0 0 Z " fill="#E8EAE6" transform="translate(633,284)"/>
<path d="M0 0 C0.33 0 0.66 0 1 0 C1.28571429 7.42857143 1.28571429 7.42857143 -1 11 C-1.66 10.67 -2.32 10.34 -3 10 C-2.25 3.375 -2.25 3.375 0 0 Z " fill="#F1F1EB" transform="translate(638,854)"/>
<path d="M0 0 C0.66 0.33 1.32 0.66 2 1 C1.53199289 5.05606165 1.12046792 8.46588679 -1 12 C-1.66 12 -2.32 12 -3 12 C-2.01 8.04 -1.02 4.08 0 0 Z " fill="#E5E9E7" transform="translate(682,706)"/>
<path d="M0 0 C1.79068573 2.6860286 2.66055791 4.6626589 3.625 7.6875 C3.88539063 8.49574219 4.14578125 9.30398438 4.4140625 10.13671875 C4.60742188 10.75160156 4.80078125 11.36648438 5 12 C4.01 11.67 3.02 11.34 2 11 C0.25327015 7.5065403 -1 4.93154432 -1 1 C-0.67 0.67 -0.34 0.34 0 0 Z " fill="#EFF0EC" transform="translate(274,445)"/>
<path d="M0 0 C0.99 0.33 1.98 0.66 3 1 C-0.96 4.465 -0.96 4.465 -5 8 C-5.66 7.67 -6.32 7.34 -7 7 C-4.69 4.69 -2.38 2.38 0 0 Z " fill="#E1E4E2" transform="translate(505,356)"/>
<path d="M0 0 C7.75 0.875 7.75 0.875 10 2 C10 2.66 10 3.32 10 4 C7.36 3.67 4.72 3.34 2 3 C2 2.34 2 1.68 2 1 C1.34 0.67 0.68 0.34 0 0 Z " fill="#081B27" transform="translate(581,131)"/>
<path d="M0 0 C3.4375 0.8125 3.4375 0.8125 7 2 C7.33 2.99 7.66 3.98 8 5 C3.545 4.01 3.545 4.01 -1 3 C-0.67 2.01 -0.34 1.02 0 0 Z " fill="#0F2A38" transform="translate(430,582)"/>
<path d="M0 0 C1.8125 0.1875 1.8125 0.1875 4 1 C5.75 3.5625 5.75 3.5625 7 6 C4 6 4 6 1.8125 4.125 C0 2 0 2 0 0 Z " fill="#1D313A" transform="translate(334,542)"/>
<path d="M0 0 C0 3 0 3 -2.5 5.6875 C-3.325 6.450625 -4.15 7.21375 -5 8 C-5.66 7.34 -6.32 6.68 -7 6 C-4.69 4.02 -2.38 2.04 0 0 Z " fill="#051624" transform="translate(548,339)"/>
<path d="M0 0 C0.66 0.33 1.32 0.66 2 1 C0.94958421 3.86477034 0.29875437 4.83913226 -2.4375 6.3125 C-5 7 -5 7 -8 6 C-5.36 4.02 -2.72 2.04 0 0 Z " fill="#05101B" transform="translate(662,543)"/>
<path d="M0 0 C0.33 0 0.66 0 1 0 C1.33 2.97 1.66 5.94 2 9 C1.01 8.67 0.02 8.34 -1 8 C-1.04241723 5.66705225 -1.04092937 3.33297433 -1 1 C-0.67 0.67 -0.34 0.34 0 0 Z " fill="#051F2B" transform="translate(531,850)"/>
<path d="M0 0 C1.46726798 3.81489674 0.43336419 6.29011622 -1 10 C-3 6.25 -3 6.25 -3 4 C-2.34 4 -1.68 4 -1 4 C-0.67 2.68 -0.34 1.36 0 0 Z " fill="#EDF1EF" transform="translate(586,717)"/>
<path d="M0 0 C0.99 0.495 0.99 0.495 2 1 C2.75 3.875 2.75 3.875 3 7 C2.34 7.99 1.68 8.98 1 10 C-0.60725635 6.78548731 -0.05748185 3.56387464 0 0 Z " fill="#E9EAE6" transform="translate(547,690)"/>
<path d="M0 0 C1.65 0.33 3.3 0.66 5 1 C3.68 2.32 2.36 3.64 1 5 C0.34 4.67 -0.32 4.34 -1 4 C-0.67 2.68 -0.34 1.36 0 0 Z " fill="#E7EBE9" transform="translate(560,326)"/>
<path d="M0 0 C0 0.66 0 1.32 0 2 C-2.8125 2.625 -2.8125 2.625 -6 3 C-6.99 2.34 -7.98 1.68 -9 1 C-3.375 -1.125 -3.375 -1.125 0 0 Z " fill="#EA9B39" transform="translate(446,150)"/>
<path d="M0 0 C2 3 2 3 1.625 5.6875 C1.41875 6.450625 1.2125 7.21375 1 8 C0.01 8.33 -0.98 8.66 -2 9 C-1.34 6.03 -0.68 3.06 0 0 Z " fill="#E9EAE7" transform="translate(609,723)"/>
<path d="M0 0 C2 3 2 3 1.7578125 5.26171875 C1.54898438 6.06222656 1.34015625 6.86273437 1.125 7.6875 C0.92132812 8.49574219 0.71765625 9.30398438 0.5078125 10.13671875 C0.25644531 11.05904297 0.25644531 11.05904297 0 12 C-2 9 -2 9 -1.7578125 6.73828125 C-1.44457031 5.53751953 -1.44457031 5.53751953 -1.125 4.3125 C-0.92132812 3.50425781 -0.71765625 2.69601562 -0.5078125 1.86328125 C-0.34023438 1.24839844 -0.17265625 0.63351562 0 0 Z " fill="#ECEEEA" transform="translate(689,681)"/>
<path d="M0 0 C6.52307692 -0.36923077 6.52307692 -0.36923077 8.9375 1.5 C9.288125 1.995 9.63875 2.49 10 3 C4.58461538 3.36923077 4.58461538 3.36923077 1.625 1.5 C1.08875 1.005 0.5525 0.51 0 0 Z " fill="#112934" transform="translate(403,592)"/>
<path d="M0 0 C0.66 0 1.32 0 2 0 C2.33 1.32 2.66 2.64 3 4 C0.3333581 5.33332095 -1.16680303 4.67102033 -4 4 C-3.67 3.34 -3.34 2.68 -3 2 C-2.01 2 -1.02 2 0 2 C0 1.34 0 0.68 0 0 Z " fill="#0B293A" transform="translate(842,808)"/>
<path d="M0 0 C0.66 0.33 1.32 0.66 2 1 C1.67 3.31 1.34 5.62 1 8 C0.34 8 -0.32 8 -1 8 C-1.125 2.25 -1.125 2.25 0 0 Z " fill="#12232E" transform="translate(737,697)"/>
<path d="M0 0 C2 1.3125 2 1.3125 4 3 C4 3.99 4 4.98 4 6 C4.66 6.33 5.32 6.66 6 7 C5.01 7.33 4.02 7.66 3 8 C0 3.375 0 3.375 0 0 Z " fill="#ECEEEC" transform="translate(834,686)"/>
<path d="M0 0 C0.33 0.99 0.66 1.98 1 3 C-0.98 3.66 -2.96 4.32 -5 5 C-3.35 3.35 -1.7 1.7 0 0 Z M-7 5 C-6.34 5.33 -5.68 5.66 -5 6 C-5.99 6 -6.98 6 -8 6 C-7.67 5.67 -7.34 5.34 -7 5 Z " fill="#EEF0ED" transform="translate(405,675)"/>
<path d="M0 0 C0.66 0.33 1.32 0.66 2 1 C1.01 2.32 0.02 3.64 -1 5 C-2.32 4.67 -3.64 4.34 -5 4 C-3.35 2.68 -1.7 1.36 0 0 Z " fill="#041823" transform="translate(330,661)"/>
<path d="M0 0 C0.556875 0.144375 1.11375 0.28875 1.6875 0.4375 C4.11384195 1.02769128 6.54906345 1.523429 9 2 C9 2.33 9 2.66 9 3 C5.7 3 2.4 3 -1 3 C-0.67 2.01 -0.34 1.02 0 0 Z " fill="#F3F1E9" transform="translate(490,617)"/>
<path d="M0 0 C-0.33 0.99 -0.66 1.98 -1 3 C-2.65 3.33 -4.3 3.66 -6 4 C-6.33 3.01 -6.66 2.02 -7 1 C-2.25 0 -2.25 0 0 0 Z " fill="#152439" transform="translate(589,272)"/>
<path d="M0 0 C0.66 0.66 1.32 1.32 2 2 C1.67 2.99 1.34 3.98 1 5 C0.67 4.67 0.34 4.34 0 4 C-1.68183948 3.76712992 -3.3712416 3.58735834 -5.0625 3.4375 C-6.44115234 3.31181641 -6.44115234 3.31181641 -7.84765625 3.18359375 C-8.91306641 3.09271484 -8.91306641 3.09271484 -10 3 C-10 2.67 -10 2.34 -10 2 C-6.7 2 -3.4 2 0 2 C0 1.34 0 0.68 0 0 Z " fill="#E89839" transform="translate(714,254)"/>
</svg>
